<svg width="56" height="57" viewBox="0 0 56 57" fill="none" xmlns="http://www.w3.org/2000/svg">
<g filter="url(#filter0_d_2710_3809)">
<path fill-rule="evenodd" clip-rule="evenodd" d="M33.9972 43.1726C43.2327 40.5618 50 32.0712 50 22C50 9.84974 40.1503 0 28 0C15.8497 0 6 9.84974 6 22C6 32.0712 12.7673 40.5618 22.0028 43.1726L27.6516 48.6614C27.8456 48.85 28.1544 48.85 28.3484 48.6614L33.9972 43.1726Z" fill="white"/>
</g>
<circle cx="28" cy="22" r="18" fill="#5C8DD6"/>
<path fill-rule="evenodd" clip-rule="evenodd" d="M32.7165 15.22C33.2063 15.22 33.8506 15.4777 34.1341 15.8385C34.4691 16.9725 34.8041 18.1324 35.1134 19.2923C35.5516 18.9572 38 18.7253 38 20.0655C38 21.0448 37.0722 21.0191 36.402 21.0191C36.5823 21.4315 36.737 21.9984 36.7628 22.849C36.7628 24.4985 36.7886 26.1222 36.7886 27.7717C36.7886 28.0809 36.5309 28.3128 36.2216 28.3128H33.7732C33.4897 28.3128 33.232 28.0809 33.232 27.7717V27.1273H22.7422V27.7717C22.7422 28.0809 22.5103 28.3128 22.201 28.3128H19.7526C19.4691 28.3128 19.2114 28.0809 19.2114 27.7717C19.2114 26.1222 19.2114 24.4985 19.2372 22.849C19.2372 21.9984 19.3919 21.4315 19.598 21.0191C18.9022 21.0191 18 21.0448 18 20.0397C18 18.8283 20.3453 18.8799 20.8866 19.2923C21.1959 18.1324 21.5051 16.9726 21.8402 15.8385C22.1494 15.4777 22.7938 15.22 23.2577 15.22H32.7166H32.7165ZM34.0052 19.1892C33.7475 18.2098 33.464 17.2303 33.2062 16.2768H22.7678C22.5101 17.2304 22.2523 18.2099 21.9946 19.1892H34.0052ZM21.8916 23.6481C21.7885 23.0554 21.7113 22.4625 21.6082 21.8697C22.6648 21.8182 23.6184 21.9213 24.4948 22.2048C24.8556 22.4109 25.1391 22.7976 25.3968 23.2357C25.5257 23.545 25.5257 23.7769 25.2164 23.8543C24.0824 23.88 22.9741 23.8285 21.8915 23.6481L21.8916 23.6481ZM34.1083 23.6481C34.1857 23.0554 34.2887 22.4625 34.366 21.8697C33.3351 21.8182 32.3557 21.9213 31.5051 22.2048C31.1443 22.4109 30.8608 22.7976 30.6031 23.2357C30.4742 23.545 30.4742 23.7769 30.7835 23.8543C31.8918 23.88 33 23.8285 34.1084 23.6481L34.1083 23.6481Z" fill="white"/>
<defs>
<filter id="filter0_d_2710_3809" x="2" y="0" width="52" height="56.8029" filterUnits="userSpaceOnUse" color-interpolation-filters="sRGB">
<feFlood flood-opacity="0" result="BackgroundImageFix"/>
<feColorMatrix in="SourceAlpha" type="matrix" values="0 0 0 0 0 0 0 0 0 0 0 0 0 0 0 0 0 0 127 0" result="hardAlpha"/>
<feOffset dy="4"/>
<feGaussianBlur stdDeviation="2"/>
<feComposite in2="hardAlpha" operator="out"/>
<feColorMatrix type="matrix" values="0 0 0 0 0 0 0 0 0 0 0 0 0 0 0 0 0 0 0.25 0"/>
<feBlend mode="normal" in2="BackgroundImageFix" result="effect1_dropShadow_2710_3809"/>
<feBlend mode="normal" in="SourceGraphic" in2="effect1_dropShadow_2710_3809" result="shape"/>
</filter>
</defs>
</svg>
