<svg width="56" height="57" viewBox="0 0 56 57" fill="none" xmlns="http://www.w3.org/2000/svg">
<g filter="url(#filter0_d_2710_3819)">
<path fill-rule="evenodd" clip-rule="evenodd" d="M33.9972 43.1726C43.2327 40.5618 50 32.0712 50 22C50 9.84974 40.1503 0 28 0C15.8497 0 6 9.84974 6 22C6 32.0712 12.7673 40.5618 22.0028 43.1726L27.6516 48.6614C27.8456 48.85 28.1544 48.85 28.3484 48.6614L33.9972 43.1726Z" fill="white"/>
</g>
<circle cx="28" cy="22" r="18" fill="#D6BE5C"/>
<path d="M20.613 29.1312H24.0514V28.4333C24.0514 28.029 23.7194 27.7013 23.3153 27.7013H21.3493C20.945 27.7013 20.6132 28.029 20.6132 28.4333L20.613 29.1312Z" fill="white"/>
<path d="M21.3919 20.6075C21.2685 21.7225 21.209 22.8459 21.209 23.948C21.209 25.046 21.2686 26.1609 21.3919 27.2757H23.2856C23.3962 26.1862 23.4516 25.0845 23.4558 23.9905C23.4558 22.8506 23.4005 21.714 23.2856 20.6075H21.3919Z" fill="white"/>
<path d="M29.7196 19.446V18.7482H26.2812V19.446C26.2812 19.8546 26.6127 20.1819 27.017 20.1819H28.9833C29.3876 20.1817 29.7196 19.8545 29.7196 19.446Z" fill="white"/>
<path d="M19.5191 29.8754V30.8116H36.4808V29.8754C36.4808 29.7009 36.3365 29.5562 36.1616 29.5562L19.8382 29.5563C19.6641 29.5563 19.519 29.7009 19.519 29.8754" fill="white"/>
<path d="M24.0512 19.446V18.7482H20.613V19.446C20.613 19.8546 20.945 20.1819 21.3491 20.1819H23.3151C23.7192 20.1817 24.0512 19.8545 24.0512 19.446" fill="white"/>
<path d="M19.3786 16.5009H36.6214C36.8253 16.5009 36.9406 16.3648 36.9783 16.2328C37.0208 16.1051 36.9996 15.9221 36.8298 15.8115L28.2423 12.305C28.23 12.3008 28.2173 12.2923 28.2041 12.2838C28.0806 12.1987 27.919 12.1987 27.7955 12.2838C27.7827 12.2923 27.7703 12.3008 27.7571 12.305L23.4764 14.054L19.1317 15.8285C18.9994 15.9221 18.9785 16.1051 19.0164 16.2328C19.0592 16.3646 19.1745 16.5009 19.3782 16.5009" fill="white"/>
<path d="M31.9487 29.1312H35.3827V28.4333C35.3827 28.029 35.0555 27.7013 34.6469 27.7013H32.6848C32.2805 27.7013 31.9487 28.029 31.9487 28.4333V29.1312Z" fill="white"/>
<path d="M32.7277 20.6075C32.6042 21.7225 32.5408 22.8459 32.5408 23.948C32.5408 25.046 32.6042 26.1609 32.7277 27.2757H34.6171C34.7277 26.1862 34.7873 25.0845 34.792 23.9905C34.792 22.8459 34.7321 21.7097 34.6171 20.6075H32.7277Z" fill="white"/>
<path d="M27.0599 20.6075C26.9364 21.7267 26.8765 22.8506 26.8765 23.948C26.8765 25.0417 26.9364 26.1609 27.0599 27.2757H28.9531C29.0641 26.1906 29.1195 25.0884 29.1238 23.9905C29.1238 22.8506 29.0684 21.714 28.9531 20.6075H27.0599Z" fill="white"/>
<path d="M36.4812 17.2456C36.4812 17.0711 36.3365 16.9264 36.162 16.9264L19.8387 16.9265C19.6643 16.9265 19.5195 17.0713 19.5195 17.2458V18.0033C19.5195 18.182 19.6643 18.3225 19.8387 18.3225H36.162C36.3365 18.3225 36.4812 18.182 36.4812 18.0033V17.2456Z" fill="white"/>
<path d="M26.2812 29.1312H29.7196V28.4333C29.7196 28.029 29.3876 27.7013 28.9835 27.7013H27.0172C26.6129 27.7013 26.2814 28.029 26.2814 28.4333L26.2812 29.1312Z" fill="white"/>
<path d="M35.3834 19.446V18.7482H31.9492V19.446C31.9492 19.8546 32.2812 20.1819 32.6853 20.1819H34.6474C35.0556 20.1817 35.3833 19.8545 35.3833 19.446" fill="white"/>
<path d="M37.7873 31.2389H18.2127C18.0952 31.2389 18 31.3342 18 31.4516C18 31.5691 18.0953 31.6643 18.2127 31.6643H37.7873C37.9047 31.6643 38 31.5689 38 31.4516C38 31.3342 37.9047 31.2389 37.7873 31.2389Z" fill="white"/>
<defs>
<filter id="filter0_d_2710_3819" x="2" y="0" width="52" height="56.8029" filterUnits="userSpaceOnUse" color-interpolation-filters="sRGB">
<feFlood flood-opacity="0" result="BackgroundImageFix"/>
<feColorMatrix in="SourceAlpha" type="matrix" values="0 0 0 0 0 0 0 0 0 0 0 0 0 0 0 0 0 0 127 0" result="hardAlpha"/>
<feOffset dy="4"/>
<feGaussianBlur stdDeviation="2"/>
<feComposite in2="hardAlpha" operator="out"/>
<feColorMatrix type="matrix" values="0 0 0 0 0 0 0 0 0 0 0 0 0 0 0 0 0 0 0.25 0"/>
<feBlend mode="normal" in2="BackgroundImageFix" result="effect1_dropShadow_2710_3819"/>
<feBlend mode="normal" in="SourceGraphic" in2="effect1_dropShadow_2710_3819" result="shape"/>
</filter>
</defs>
</svg>
