<svg width="56" height="57" viewBox="0 0 56 57" fill="none" xmlns="http://www.w3.org/2000/svg">
<g filter="url(#filter0_d_2710_3877)">
<path fill-rule="evenodd" clip-rule="evenodd" d="M33.9972 43.1726C43.2327 40.5618 50 32.0712 50 22C50 9.84974 40.1503 0 28 0C15.8497 0 6 9.84974 6 22C6 32.0712 12.7673 40.5618 22.0028 43.1726L27.6516 48.6614C27.8456 48.85 28.1544 48.85 28.3484 48.6614L33.9972 43.1726Z" fill="white"/>
</g>
<circle cx="28" cy="22.11" r="18" fill="#D65C5C"/>
<path d="M35.3282 13.6335C35.3076 13.5046 35.2357 13.3885 35.1314 13.3128C35.0271 13.237 34.9002 13.2056 34.7644 13.2261L30.8793 13.8539C30.8458 13.8598 30.8153 13.8776 30.7839 13.8893C30.7691 13.6314 30.5596 13.4269 30.2978 13.4269H18.4917C18.2205 13.4269 18 13.6472 18 13.9188V30.6442C18 30.9147 18.2205 31.136 18.4919 31.136H30.298C30.5686 31.136 30.7899 30.9147 30.7899 30.6442L30.7897 16.3823L33.1382 30.9283C33.1587 31.0572 33.2306 31.1723 33.335 31.249C33.4195 31.3109 33.5199 31.3425 33.6232 31.3425C33.6488 31.3425 33.6764 31.3406 33.7019 31.3367L37.5871 30.7089C37.8548 30.6646 38.0377 30.4128 37.9934 30.1451L35.3282 13.6335ZM19.9675 15.3944C19.9675 15.1229 20.188 14.9026 20.4594 14.9026C20.731 14.9026 20.9513 15.123 20.9513 15.3944V18.3459C20.9513 18.6175 20.7308 18.8378 20.4594 18.8378C20.188 18.838 19.9675 18.6175 19.9675 18.3461V15.3944ZM21.9352 30.1521H18.9838V28.1844H21.9352V30.1521ZM23.903 15.3944C23.903 15.1229 24.1234 14.9026 24.3949 14.9026C24.6663 14.9026 24.8867 15.123 24.8867 15.3944V18.3459C24.8867 18.6175 24.6663 18.8378 24.3949 18.8378C24.1233 18.838 23.903 18.6175 23.903 18.3461V15.3944ZM25.8705 30.1521H22.919V28.1844H25.8705V30.1521ZM27.8383 15.3944C27.8383 15.1229 28.0596 14.9026 28.3301 14.9026C28.6007 14.9026 28.8222 15.123 28.8222 15.3944V18.3459C28.8222 18.6175 28.6009 18.8378 28.3303 18.8378C28.0596 18.838 27.8383 18.6175 27.8383 18.3461V15.3944ZM29.806 30.1521H26.8545V28.1844H29.806V30.1521ZM33.6853 18.8814C33.6598 18.8853 33.6313 18.8872 33.6047 18.8872C33.3705 18.8872 33.161 18.716 33.1226 18.4741L32.6513 15.5619C32.607 15.2942 32.7909 15.0415 33.0567 14.9981C33.3283 14.9509 33.5781 15.1369 33.6194 15.4054L34.0907 18.3176C34.1348 18.5853 33.9528 18.8382 33.6853 18.8814L33.6853 18.8814ZM34.0307 30.287L33.7188 28.344L36.632 27.8727L36.945 29.8157L34.0307 30.287Z" fill="white"/>
<defs>
<filter id="filter0_d_2710_3877" x="2" y="0" width="52" height="56.8029" filterUnits="userSpaceOnUse" color-interpolation-filters="sRGB">
<feFlood flood-opacity="0" result="BackgroundImageFix"/>
<feColorMatrix in="SourceAlpha" type="matrix" values="0 0 0 0 0 0 0 0 0 0 0 0 0 0 0 0 0 0 127 0" result="hardAlpha"/>
<feOffset dy="4"/>
<feGaussianBlur stdDeviation="2"/>
<feComposite in2="hardAlpha" operator="out"/>
<feColorMatrix type="matrix" values="0 0 0 0 0 0 0 0 0 0 0 0 0 0 0 0 0 0 0.25 0"/>
<feBlend mode="normal" in2="BackgroundImageFix" result="effect1_dropShadow_2710_3877"/>
<feBlend mode="normal" in="SourceGraphic" in2="effect1_dropShadow_2710_3877" result="shape"/>
</filter>
</defs>
</svg>
