<svg width="56" height="57" viewBox="0 0 56 57" fill="none" xmlns="http://www.w3.org/2000/svg">
<g filter="url(#filter0_d_2710_3961)">
<path fill-rule="evenodd" clip-rule="evenodd" d="M33.9972 43.1726C43.2327 40.5618 50 32.0712 50 22C50 9.84974 40.1503 0 28 0C15.8497 0 6 9.84974 6 22C6 32.0712 12.7673 40.5618 22.0028 43.1726L27.6516 48.6614C27.8456 48.85 28.1544 48.85 28.3484 48.6614L33.9972 43.1726Z" fill="white"/>
</g>
<circle cx="28" cy="22" r="18" fill="#5CA5D6"/>
<path d="M25.1051 23.2729C25.1056 23.6916 25.2721 24.0929 25.5682 24.3889C25.8641 24.6849 26.2655 24.8513 26.684 24.8518H28.7894C29.2081 24.8513 29.6093 24.685 29.9054 24.3889C30.2014 24.0928 30.3678 23.6916 30.3683 23.2729V20.6414H25.105L25.1051 23.2729Z" fill="white"/>
<path d="M31.9473 21.6938H31.421V23.2728C31.4189 23.4215 31.4039 23.5699 31.3762 23.716C31.6939 23.6148 31.9713 23.4155 32.1685 23.1468C32.3656 22.8779 32.4724 22.5535 32.4737 22.2202C32.4731 21.9296 32.2377 21.6944 31.9473 21.6939L31.9473 21.6938Z" fill="white"/>
<path d="M28 12.2202C25.3479 12.2202 22.8044 13.2738 20.929 15.1492C19.0537 17.0245 18 19.5681 18 22.2202C18 24.8723 19.0536 27.4158 20.929 29.2912C22.8044 31.1665 25.348 32.22 28 32.22C30.6521 32.22 33.1957 31.1665 35.071 29.2912C36.9464 27.4158 38 24.8722 38 22.2202C37.997 19.5689 36.9424 17.0272 35.0677 15.1523C33.193 13.2775 30.6512 12.2229 27.9998 12.22L28 12.2202ZM28.4173 15.5323C28.6237 15.3312 28.9532 15.3333 29.1569 15.537C29.3606 15.7405 29.3628 16.0702 29.1617 16.2765C29.0977 16.3307 29.0459 16.3975 29.0094 16.4729C29.0269 16.4381 29.1071 16.5306 29.1615 16.585C29.4072 16.8307 30.0599 17.4834 29.1615 18.382L29.1617 18.3818C29.0634 18.4826 28.9289 18.5399 28.7881 18.5407C28.6475 18.5416 28.5121 18.4861 28.4126 18.3865C28.3132 18.287 28.2577 18.1518 28.2586 18.011C28.2594 17.8704 28.3165 17.7357 28.4173 17.6376C28.4813 17.5833 28.5331 17.5165 28.5696 17.4411C28.5521 17.4781 28.472 17.3835 28.4175 17.329C28.1717 17.0836 27.5189 16.4307 28.4173 15.5323L28.4173 15.5323ZM26.312 15.5323H26.3122C26.5183 15.3312 26.8481 15.3333 27.0516 15.537C27.2553 15.7405 27.2574 16.0702 27.0564 16.2765C26.9926 16.3307 26.9408 16.3975 26.9043 16.4729C26.926 16.4381 27.003 16.5306 27.0564 16.585C27.302 16.8307 27.9547 17.4834 27.0564 18.382V18.3818C26.9582 18.4826 26.8236 18.5399 26.6828 18.5407C26.5421 18.5416 26.4068 18.4861 26.3074 18.3865C26.2078 18.287 26.1523 18.1518 26.1532 18.011C26.1541 17.8704 26.2114 17.7357 26.3122 17.6376C26.376 17.5833 26.4278 17.5165 26.4642 17.4411C26.4468 17.4781 26.3666 17.3835 26.3122 17.329C26.0663 17.0836 25.4136 16.4307 26.3122 15.5323L26.312 15.5323ZM30.895 28.0096H24.5792C24.2884 28.0096 24.0528 27.774 24.0528 27.4832C24.0528 27.1926 24.2884 26.957 24.5792 26.957H30.895C31.1856 26.957 31.4212 27.1926 31.4212 27.4832C31.4212 27.774 31.1856 28.0096 30.895 28.0096ZM30.895 24.8517C30.891 24.8517 30.8878 24.8496 30.8837 24.8494C30.3906 25.5111 29.6149 25.902 28.7897 25.9043H26.6843C25.9867 25.9037 25.3177 25.6262 24.8243 25.1327C24.3309 24.6395 24.0535 23.9704 24.0528 23.2727V20.1148C24.0528 19.9753 24.1081 19.8413 24.2068 19.7426C24.3055 19.6438 24.4394 19.5885 24.5792 19.5885H30.895C31.0346 19.5885 31.1685 19.6438 31.2672 19.7426C31.3659 19.8413 31.4214 19.9753 31.4212 20.1148V20.6412H31.9476C32.3663 20.6416 32.7676 20.8081 33.0636 21.1042C33.3596 21.4002 33.526 21.8015 33.5265 22.2202C33.5258 22.9178 33.2485 23.5868 32.755 24.0802C32.2616 24.5736 31.5926 24.851 30.895 24.8517L30.895 24.8517Z" fill="white"/>
<defs>
<filter id="filter0_d_2710_3961" x="2" y="0" width="52" height="56.8029" filterUnits="userSpaceOnUse" color-interpolation-filters="sRGB">
<feFlood flood-opacity="0" result="BackgroundImageFix"/>
<feColorMatrix in="SourceAlpha" type="matrix" values="0 0 0 0 0 0 0 0 0 0 0 0 0 0 0 0 0 0 127 0" result="hardAlpha"/>
<feOffset dy="4"/>
<feGaussianBlur stdDeviation="2"/>
<feComposite in2="hardAlpha" operator="out"/>
<feColorMatrix type="matrix" values="0 0 0 0 0 0 0 0 0 0 0 0 0 0 0 0 0 0 0.25 0"/>
<feBlend mode="normal" in2="BackgroundImageFix" result="effect1_dropShadow_2710_3961"/>
<feBlend mode="normal" in="SourceGraphic" in2="effect1_dropShadow_2710_3961" result="shape"/>
</filter>
</defs>
</svg>
