<svg width="56" height="57" viewBox="0 0 56 57" fill="none" xmlns="http://www.w3.org/2000/svg">
<g filter="url(#filter0_d_2710_4462)">
<path fill-rule="evenodd" clip-rule="evenodd" d="M33.9972 43.1726C43.2327 40.5618 50 32.0712 50 22C50 9.84974 40.1503 0 28 0C15.8497 0 6 9.84974 6 22C6 32.0712 12.7673 40.5618 22.0028 43.1726L27.6516 48.6614C27.8456 48.85 28.1544 48.85 28.3484 48.6614L33.9972 43.1726Z" fill="white"/>
</g>
<circle cx="28" cy="22" r="18" fill="#74D65C"/>
<path d="M29.0964 19.1428H30.9039C31.0413 19.1428 31.1539 19.0304 31.1539 18.8928V17.0853C31.1539 16.9479 31.0415 16.8352 30.9039 16.8352H29.0964C28.959 16.8352 28.8463 16.9477 28.8463 17.0853V18.8928C28.8463 19.0303 28.9588 19.1428 29.0964 19.1428Z" fill="white"/>
<path d="M26.2883 16.8357H24.4807C24.3432 16.8357 24.2306 16.9482 24.2306 17.0858V18.8932C24.2306 19.0307 24.3431 19.1433 24.4807 19.1433H26.2883C26.4257 19.1433 26.5384 19.0308 26.5384 18.8932V17.0858C26.5384 16.9482 26.4259 16.8357 26.2883 16.8357Z" fill="white"/>
<path d="M29.0964 22.9892H30.9039C31.0413 22.9892 31.1539 22.8767 31.1539 22.7391V20.9315C31.1539 20.7941 31.0415 20.6814 30.9039 20.6814H29.0964C28.959 20.6814 28.8463 20.7939 28.8463 20.9315V22.7391C28.8463 22.8767 28.9588 22.9892 29.0964 22.9892Z" fill="white"/>
<path d="M26.2883 20.6816H24.4807C24.3432 20.6816 24.2306 20.7941 24.2306 20.9317V22.7394C24.2306 22.8768 24.3431 22.9894 24.4807 22.9894H26.2883C26.4257 22.9894 26.5384 22.877 26.5384 22.7394V20.9317C26.5384 20.7941 26.4259 20.6816 26.2883 20.6816Z" fill="white"/>
<path d="M26.2883 24.5276H24.4807C24.3432 24.5276 24.2306 24.6401 24.2306 24.7777V26.5853C24.2306 26.7227 24.3431 26.8354 24.4807 26.8354H26.2883C26.4257 26.8354 26.5384 26.7229 26.5384 26.5853V24.7777C26.5384 24.6404 26.4259 24.5276 26.2883 24.5276Z" fill="white"/>
<path d="M35.1347 29.9123H34.6154L34.6156 13.2393C34.6156 13.1018 34.5031 12.9892 34.3655 12.9892H32.3077V12.47C32.3077 12.3326 32.1953 12.22 32.0577 12.22H23.3269C23.1895 12.22 23.0769 12.3324 23.0769 12.47V12.9894H21.0193C20.8819 12.9894 20.7692 13.1018 20.7692 13.2394L20.7696 29.9125H20.2501C20.1127 29.9125 20 30.025 20 30.1626V31.9699C20 32.1073 20.1125 32.22 20.2501 32.22H35.1348C35.2722 32.22 35.3848 32.1075 35.3848 31.9699V30.1624C35.3848 30.025 35.272 29.9125 35.1348 29.9125L35.1347 29.9123ZM22.3076 14.5276H33.0767V29.9119H31.1538L31.1536 25.566C31.1536 25.4178 31.0324 25.2966 30.8842 25.2966H29.1157C28.9675 25.2966 28.8463 25.4178 28.8463 25.566V29.9117H22.3075L22.3076 14.5276Z" fill="white"/>
<defs>
<filter id="filter0_d_2710_4462" x="2" y="0" width="52" height="56.8029" filterUnits="userSpaceOnUse" color-interpolation-filters="sRGB">
<feFlood flood-opacity="0" result="BackgroundImageFix"/>
<feColorMatrix in="SourceAlpha" type="matrix" values="0 0 0 0 0 0 0 0 0 0 0 0 0 0 0 0 0 0 127 0" result="hardAlpha"/>
<feOffset dy="4"/>
<feGaussianBlur stdDeviation="2"/>
<feComposite in2="hardAlpha" operator="out"/>
<feColorMatrix type="matrix" values="0 0 0 0 0 0 0 0 0 0 0 0 0 0 0 0 0 0 0.25 0"/>
<feBlend mode="normal" in2="BackgroundImageFix" result="effect1_dropShadow_2710_4462"/>
<feBlend mode="normal" in="SourceGraphic" in2="effect1_dropShadow_2710_4462" result="shape"/>
</filter>
</defs>
</svg>
