<svg width="56" height="57" viewBox="0 0 56 57" fill="none" xmlns="http://www.w3.org/2000/svg">
<g filter="url(#filter0_d_2710_4519)">
<path fill-rule="evenodd" clip-rule="evenodd" d="M33.9972 43.1726C43.2327 40.5618 50 32.0712 50 22C50 9.84974 40.1503 0 28 0C15.8497 0 6 9.84974 6 22C6 32.0712 12.7673 40.5618 22.0028 43.1726L27.6516 48.6614C27.8456 48.85 28.1544 48.85 28.3484 48.6614L33.9972 43.1726Z" fill="white"/>
</g>
<circle cx="28" cy="22" r="18" fill="#D68D5C"/>
<path d="M25.4464 16.8281V15.0889C25.4464 14.8664 25.358 14.6529 25.2007 14.4956C25.0433 14.3383 24.8298 14.2499 24.6074 14.2499H24.4716C24.249 14.2499 24.0356 14.3383 23.8783 14.4956C23.7209 14.6529 23.6326 14.8664 23.6326 15.0889V17.1151C23.6323 17.1939 23.673 17.2671 23.7402 17.3084C23.8073 17.3496 23.8911 17.353 23.9614 17.317C24.2941 17.1443 24.6636 17.0545 25.0386 17.0548H25.2197C25.2799 17.0548 25.3375 17.031 25.3801 16.9885C25.4225 16.9459 25.4464 16.8883 25.4464 16.828L25.4464 16.8281Z" fill="white"/>
<path d="M27.6655 17.0549C27.7236 17.0558 27.7795 17.0335 27.8212 16.9929C27.8628 16.9524 27.8864 16.8969 27.887 16.8388V15.088C27.8869 14.8657 27.7983 14.6525 27.6411 14.4954C27.4837 14.3382 27.2703 14.2499 27.048 14.2499H26.9118C26.6893 14.2499 26.4758 14.3383 26.3184 14.4956C26.1611 14.6529 26.0728 14.8664 26.0728 15.0889V16.8397C26.0729 16.9589 26.1696 17.0554 26.2889 17.0558H27.6655L27.6655 17.0549Z" fill="white"/>
<path d="M29.416 19.5309C29.9229 19.5309 30.3268 19.1038 30.3268 18.5969V15.1835C30.3268 14.6958 29.9527 14.2752 29.4655 14.2514L29.4656 14.2512C29.2173 14.2389 28.9749 14.3289 28.7947 14.5001C28.6146 14.6712 28.5126 14.9088 28.5125 15.1574V17.2625C28.5121 17.3583 28.542 17.4517 28.5979 17.5294C28.7531 17.742 28.8316 18.0013 28.8204 18.2643C28.8112 18.4871 28.788 18.7092 28.7507 18.9291C28.7174 19.127 28.8135 19.324 28.9898 19.4198C29.1205 19.4913 29.2669 19.5296 29.416 19.5308L29.416 19.5309Z" fill="white"/>
<path d="M32.7671 15.1575C32.7725 14.9135 32.6793 14.6776 32.5085 14.5033C32.3378 14.3288 32.1041 14.2305 31.8601 14.2305C31.6159 14.2305 31.3821 14.3288 31.2115 14.5033C31.0408 14.6776 30.9475 14.9135 30.9529 15.1575V18.6236C30.9475 18.8676 31.0408 19.1033 31.2115 19.2778C31.3821 19.4523 31.6159 19.5506 31.8601 19.5506C32.1041 19.5506 32.3378 19.4523 32.5085 19.2778C32.6793 19.1034 32.7725 18.8676 32.7671 18.6236V15.1575Z" fill="white"/>
<path d="M31.0892 30.062C31.3135 30.0617 31.4956 29.8807 31.4969 29.6563V26.7318C31.4969 26.5982 31.5322 26.4671 31.599 26.3515C31.6659 26.2359 31.762 26.14 31.8779 26.0733C32.1387 25.9232 32.3552 25.7072 32.506 25.4468C32.6567 25.1864 32.736 24.8908 32.7362 24.5899V22.4289C32.7362 21.8597 32.51 21.3139 32.1075 20.9115C31.705 20.5092 31.1591 20.283 30.59 20.2832H28.8426C28.788 20.2832 28.6987 20.2883 28.6445 20.2947L27.6624 20.4088V20.4087C27.5551 20.421 27.4642 20.4941 27.429 20.5962C27.3937 20.6984 27.4203 20.8119 27.4971 20.8878C28.0361 21.4216 28.5566 22.2808 28.697 23.6463C28.7182 23.8526 28.5681 24.037 28.3618 24.0583H28.3229H28.3231C28.1308 24.058 27.9697 23.9127 27.9497 23.7215C27.6577 20.8814 25.5376 20.6646 25.4475 20.6565V20.6563C25.3476 20.6476 25.2552 20.5993 25.191 20.522C25.1268 20.4448 25.0963 20.3451 25.1059 20.2452C25.1283 20.0651 25.2726 19.9246 25.4531 19.9069L27.5514 19.6635C27.6607 19.6509 27.764 19.6067 27.8488 19.5365C27.9336 19.4662 27.9961 19.3729 28.0287 19.2678V19.264C28.0582 19.1696 28.0826 19.0735 28.103 18.9779H28.1031C28.1533 18.7333 28.1835 18.4852 28.1936 18.2357C28.1951 18.1994 28.193 18.1631 28.1872 18.1272C28.1463 17.8697 27.9246 17.6798 27.6636 17.6793H25.0385C24.5825 17.679 24.145 17.86 23.8225 18.1824C23.5001 18.505 23.319 18.9424 23.3193 19.3985V23.9502C23.3193 24.8452 23.7915 25.6737 24.5614 26.13L24.6195 26.1647V26.1645C24.8504 26.3011 24.9921 26.5496 24.992 26.8178V29.6562C24.992 29.7643 25.035 29.868 25.1114 29.9445C25.1878 30.0209 25.2916 30.064 25.3997 30.064L31.0892 30.062Z" fill="white"/>
<path d="M20.4933 26.0556C20.6281 26.0556 20.7573 26.0021 20.8526 25.9068C20.9479 25.8116 21.0014 25.6823 21.0014 25.5475V21.8667H21.8576C22.0285 21.8667 22.1923 21.7989 22.3133 21.6781C22.434 21.5571 22.5019 21.3934 22.5019 21.2224V19.0537C22.5021 18.8827 22.4342 18.7188 22.3134 18.5978C22.1925 18.4769 22.0285 18.4089 21.8576 18.4089H21.0014V14.7281C21.0014 14.4475 20.7739 14.22 20.4933 14.22H18.5081C18.2275 14.22 18 14.4475 18 14.7281V25.5474C18 25.8281 18.2275 26.0555 18.5081 26.0555L20.4933 26.0556Z" fill="white"/>
<path d="M37.4919 14.2201H35.5067C35.2261 14.2201 34.9986 14.4476 34.9986 14.7282V18.409H34.1446C33.9736 18.409 33.8097 18.477 33.6887 18.598C33.568 18.7189 33.5001 18.8828 33.5002 19.0538V21.2225C33.5002 21.3935 33.5681 21.5573 33.6889 21.6782C33.8098 21.799 33.9736 21.8668 34.1446 21.8668H34.9986V25.5476C34.9986 25.8284 35.2261 26.0558 35.5067 26.0558H37.4918C37.6267 26.0558 37.7558 26.0022 37.8511 25.9069C37.9465 25.8118 38 25.6824 38 25.5476V14.7284C38 14.4478 37.7725 14.2202 37.4918 14.2202L37.4919 14.2201Z" fill="white"/>
<defs>
<filter id="filter0_d_2710_4519" x="2" y="0" width="52" height="56.8029" filterUnits="userSpaceOnUse" color-interpolation-filters="sRGB">
<feFlood flood-opacity="0" result="BackgroundImageFix"/>
<feColorMatrix in="SourceAlpha" type="matrix" values="0 0 0 0 0 0 0 0 0 0 0 0 0 0 0 0 0 0 127 0" result="hardAlpha"/>
<feOffset dy="4"/>
<feGaussianBlur stdDeviation="2"/>
<feComposite in2="hardAlpha" operator="out"/>
<feColorMatrix type="matrix" values="0 0 0 0 0 0 0 0 0 0 0 0 0 0 0 0 0 0 0.25 0"/>
<feBlend mode="normal" in2="BackgroundImageFix" result="effect1_dropShadow_2710_4519"/>
<feBlend mode="normal" in="SourceGraphic" in2="effect1_dropShadow_2710_4519" result="shape"/>
</filter>
</defs>
</svg>
