<svg width="56" height="57" viewBox="0 0 56 57" fill="none" xmlns="http://www.w3.org/2000/svg">
<g filter="url(#filter0_d_2710_4583)">
<path fill-rule="evenodd" clip-rule="evenodd" d="M33.9972 43.1726C43.2327 40.5618 50 32.0712 50 22C50 9.84974 40.1503 0 28 0C15.8497 0 6 9.84974 6 22C6 32.0712 12.7673 40.5618 22.0028 43.1726L27.6516 48.6614C27.8456 48.85 28.1544 48.85 28.3484 48.6614L33.9972 43.1726Z" fill="white"/>
</g>
<circle cx="28" cy="22" r="18" fill="#BE5CD6"/>
<path d="M33.1996 23.5243C32.6604 23.5243 32.1456 23.6287 31.6696 23.811L30.2545 21.6178C30.4052 21.414 30.5513 21.2067 30.69 20.9915C32.4556 18.2543 32.9648 15.0693 32.3685 12.11L28.2464 18.5024L24.1244 12.11C23.5277 15.0694 24.0373 18.2541 25.8024 20.9915C25.9416 21.2067 26.0881 21.4141 26.2379 21.6178L24.8233 23.811C24.3469 23.6287 23.8328 23.5243 23.2929 23.5243C20.9258 23.5243 19 25.4499 19 27.8171C19 30.1841 20.9256 32.11 23.2929 32.11C25.6595 32.11 27.5857 30.1844 27.5857 27.8171C27.5857 26.7158 27.1654 25.7143 26.4815 24.9533C27.1008 24.6065 27.6909 24.2011 28.2463 23.7422C28.8021 24.2013 29.3918 24.6065 30.0114 24.9533C29.3275 25.7143 28.9072 26.716 28.9072 27.8171C28.9072 30.1841 30.8332 32.11 33.1996 32.11C35.5671 32.11 37.4929 30.1844 37.4929 27.8171C37.4929 25.4501 35.5673 23.5243 33.2 23.5243H33.1996ZM25.6575 27.8171C25.6575 29.121 24.5965 30.1819 23.293 30.1819C21.9888 30.1819 20.9282 29.121 20.9282 27.8171C20.9282 26.5133 21.9889 25.4523 23.293 25.4523C23.445 25.4523 23.5935 25.4681 23.7373 25.4959C24.0322 25.5523 24.3067 25.6641 24.5517 25.8192C25.2151 26.2383 25.6575 26.9764 25.6575 27.8171V27.8171ZM33.1996 30.1821C31.8961 30.1821 30.8356 29.1211 30.8356 27.8173C30.8356 26.9766 31.278 26.2385 31.9409 25.8192C32.1863 25.6643 32.4608 25.5524 32.7553 25.4959C32.8996 25.4682 33.0481 25.4523 33.1996 25.4523C34.5039 25.4523 35.5649 26.5133 35.5649 27.8171C35.5649 29.121 34.5037 30.1821 33.1996 30.1821V30.1821Z" fill="white"/>
<defs>
<filter id="filter0_d_2710_4583" x="2" y="0" width="52" height="56.8029" filterUnits="userSpaceOnUse" color-interpolation-filters="sRGB">
<feFlood flood-opacity="0" result="BackgroundImageFix"/>
<feColorMatrix in="SourceAlpha" type="matrix" values="0 0 0 0 0 0 0 0 0 0 0 0 0 0 0 0 0 0 127 0" result="hardAlpha"/>
<feOffset dy="4"/>
<feGaussianBlur stdDeviation="2"/>
<feComposite in2="hardAlpha" operator="out"/>
<feColorMatrix type="matrix" values="0 0 0 0 0 0 0 0 0 0 0 0 0 0 0 0 0 0 0.25 0"/>
<feBlend mode="normal" in2="BackgroundImageFix" result="effect1_dropShadow_2710_4583"/>
<feBlend mode="normal" in="SourceGraphic" in2="effect1_dropShadow_2710_4583" result="shape"/>
</filter>
</defs>
</svg>
