<svg width="56" height="57" viewBox="0 0 56 57" fill="none" xmlns="http://www.w3.org/2000/svg">
<g filter="url(#filter0_d_2710_4615)">
<path fill-rule="evenodd" clip-rule="evenodd" d="M33.9972 43.1726C43.2327 40.5618 50 32.0712 50 22C50 9.84974 40.1503 0 28 0C15.8497 0 6 9.84974 6 22C6 32.0712 12.7673 40.5618 22.0028 43.1726L27.6516 48.6614C27.8456 48.85 28.1544 48.85 28.3484 48.6614L33.9972 43.1726Z" fill="white"/>
</g>
<circle cx="28" cy="22" r="18" fill="#5CBED6"/>
<path d="M38 28.2872V30.5745L18 30.5639V28.2777C18.096 27.9155 18.3938 27.6822 18.7108 27.8752C18.9649 28.0807 19.2713 28.2112 19.5954 28.2517C19.9197 28.2923 20.2487 28.2413 20.5456 28.1048C20.8049 27.9896 21.0835 27.6726 21.4197 27.8751C21.676 28.08 21.9839 28.21 22.3095 28.2504C22.635 28.2909 22.9655 28.2405 23.2641 28.1048L23.6098 27.9127L23.6867 27.8751C24.0134 27.683 24.2631 27.9798 24.5608 28.1048C24.5704 28.1154 24.5896 28.1154 24.5992 28.1249H24.5993C25.0367 28.3521 25.558 28.3484 25.9922 28.1154L26.3956 27.8751H26.3958C26.5405 27.7879 26.7216 27.7879 26.8664 27.8751C27.4811 28.2008 27.9807 28.5177 28.7012 28.1048L29.1334 27.8751H29.1335C29.2783 27.7879 29.4593 27.7879 29.6041 27.8751L30.0172 28.1154C30.4484 28.3502 30.9693 28.3502 31.4006 28.1154C31.4113 28.1167 31.422 28.1127 31.4294 28.1048L31.852 27.8751C32.1787 27.683 32.3708 27.951 32.7261 28.1048C33.167 28.3547 33.7069 28.3547 34.1478 28.1048L34.58 27.8751H34.5802C34.7249 27.7879 34.9062 27.7879 35.0508 27.8751L35.4541 28.1048H35.4543C35.8917 28.3554 36.4291 28.3554 36.8665 28.1048L37.2891 27.8751C37.4339 27.7879 37.6151 27.7879 37.7599 27.8751C37.9135 27.9607 37.9529 28.0894 37.9999 28.2872L38 28.2872ZM23.4853 26.9146C23.6256 26.8712 23.7711 26.8482 23.9177 26.8464C24.1717 26.8467 24.4209 26.9164 24.6382 27.0481L24.9649 27.2307L24.9647 27.2305C25.022 27.2665 25.0831 27.2957 25.1473 27.3169C25.2801 27.3476 25.4195 27.3307 25.5411 27.269L25.9061 27.0481C26.1251 26.9161 26.3759 26.8462 26.6313 26.8462C26.8869 26.8462 27.1377 26.9161 27.3567 27.0481L27.52 27.1345V20.948C27.52 20.6828 27.7349 20.4677 28.0003 20.4677C28.2656 20.4677 28.4805 20.6828 28.4805 20.948V27.1345L28.6822 27.0288C28.8889 26.9074 29.1246 26.8442 29.3643 26.8464C29.6216 26.8454 29.8741 26.9151 30.0943 27.0481L30.4977 27.2883V27.2881C30.6359 27.35 30.7946 27.3468 30.9301 27.2796L31.1703 27.1548L31.3913 27.029L31.3911 27.0288C31.6017 26.9085 31.8402 26.8456 32.0828 26.8464C32.2297 26.8456 32.3756 26.8685 32.5151 26.9146C32.7745 25.0116 33.3509 21.9473 34.5709 20.7954H34.5708C34.7127 20.6667 34.7621 20.4649 34.6957 20.2853C34.6334 20.1067 34.4711 19.9822 34.2826 19.9682C33.5868 19.9104 32.8943 19.8174 32.2078 19.6896C31.9004 19.632 31.5834 19.5743 31.2472 19.4879H31.2471C30.1989 19.2783 29.1864 18.9192 28.2405 18.4217C28.1691 18.3846 28.0902 18.3649 28.0098 18.364H27.9906H27.9907C27.9103 18.3649 27.8314 18.3846 27.76 18.4217C26.8141 18.9192 25.8016 19.2784 24.7535 19.4879C24.4173 19.5743 24.1003 19.632 23.7929 19.6896H23.7928C23.1063 19.8174 22.4138 19.9104 21.7179 19.9682C21.5294 19.9822 21.3671 20.1067 21.3048 20.2853C21.2385 20.4649 21.2879 20.6667 21.4298 20.7954C22.6401 21.947 23.2261 25.0114 23.4854 26.9146H23.4853ZM24.5132 18.5572C24.273 18.6244 24.0425 18.6629 23.7927 18.711V15.8376C23.7927 15.5724 24.0078 15.3573 24.2732 15.3573H31.7273H31.7272C31.8547 15.3573 31.9768 15.4079 32.0669 15.498C32.157 15.5882 32.2076 15.7103 32.2076 15.8376V18.7194C31.9771 18.6618 31.7369 18.6234 31.4583 18.5465C30.4864 18.3594 29.5476 18.0292 28.6725 17.5667C28.4614 17.4588 28.2276 17.4027 27.9905 17.4034C27.7426 17.4082 27.4992 17.4707 27.2796 17.586C26.4107 18.0448 25.4783 18.3718 24.513 18.5562L24.5132 18.5572ZM29.4411 16.6254C29.4411 16.8196 29.558 16.9948 29.7376 17.0692C29.917 17.1434 30.1236 17.1024 30.2609 16.965C30.3983 16.8276 30.4395 16.6211 30.3651 16.4415C30.2907 16.2621 30.1155 16.145 29.9213 16.145C29.6575 16.1487 29.4446 16.3616 29.4411 16.6254L29.4411 16.6254ZM27.5198 16.6254C27.5198 16.8196 27.6368 16.9948 27.8163 17.0692C27.9957 17.1434 28.2023 17.1024 28.3396 16.965C28.477 16.8276 28.5182 16.6211 28.4438 16.4415C28.3695 16.2621 28.1944 16.145 28.0001 16.145C27.7364 16.1487 27.5233 16.3616 27.5198 16.6254L27.5198 16.6254ZM25.5986 16.6254C25.5986 16.8196 25.7157 16.9948 25.8951 17.0692C26.0745 17.1434 26.2812 17.1024 26.4186 16.965C26.5559 16.8276 26.597 16.6211 26.5226 16.4415C26.4482 16.2621 26.2732 16.145 26.0788 16.145C25.8151 16.1487 25.6022 16.3616 25.5986 16.6254L25.5986 16.6254ZM30.4784 13.7004V13.7002C30.4784 13.5729 30.4278 13.4508 30.3377 13.3607C30.2475 13.2706 30.1254 13.22 29.9981 13.22H26.0018C25.7366 13.22 25.5215 13.4351 25.5215 13.7002V14.3966H30.4785L30.4784 13.7004Z" fill="white"/>
<defs>
<filter id="filter0_d_2710_4615" x="2" y="0" width="52" height="56.8029" filterUnits="userSpaceOnUse" color-interpolation-filters="sRGB">
<feFlood flood-opacity="0" result="BackgroundImageFix"/>
<feColorMatrix in="SourceAlpha" type="matrix" values="0 0 0 0 0 0 0 0 0 0 0 0 0 0 0 0 0 0 127 0" result="hardAlpha"/>
<feOffset dy="4"/>
<feGaussianBlur stdDeviation="2"/>
<feComposite in2="hardAlpha" operator="out"/>
<feColorMatrix type="matrix" values="0 0 0 0 0 0 0 0 0 0 0 0 0 0 0 0 0 0 0.25 0"/>
<feBlend mode="normal" in2="BackgroundImageFix" result="effect1_dropShadow_2710_4615"/>
<feBlend mode="normal" in="SourceGraphic" in2="effect1_dropShadow_2710_4615" result="shape"/>
</filter>
</defs>
</svg>
