<svg width="56" height="57" viewBox="0 0 56 57" fill="none" xmlns="http://www.w3.org/2000/svg">
<g filter="url(#filter0_d_2710_4652)">
<path fill-rule="evenodd" clip-rule="evenodd" d="M33.9972 43.1726C43.2327 40.5618 50 32.0712 50 22C50 9.84974 40.1503 0 28 0C15.8497 0 6 9.84974 6 22C6 32.0712 12.7673 40.5618 22.0028 43.1726L27.6516 48.6614C27.8456 48.85 28.1544 48.85 28.3484 48.6614L33.9972 43.1726Z" fill="white"/>
</g>
<circle cx="28" cy="22" r="18" fill="#D6745C"/>
<path d="M36.9889 18.6938C36.8684 18.6938 36.746 18.672 36.6267 18.6263L28.0003 15.3142L19.3738 18.6263C18.8524 18.8265 18.2675 18.5662 18.0675 18.0448C17.8673 17.5235 18.1276 16.9384 18.649 16.7384L27.6375 13.2871C27.8709 13.1976 28.129 13.1976 28.3625 13.2871L37.351 16.7385C37.8722 16.9387 38.1328 17.5236 37.9325 18.0449C37.778 18.447 37.3947 18.6938 36.9886 18.6938L36.9889 18.6938Z" fill="white"/>
<path d="M24.0187 22.8076C24.0187 23.8547 23.1699 24.7034 22.1229 24.7034C21.0761 24.7034 20.2273 23.8547 20.2273 22.8076C20.2273 21.7606 21.0761 20.9119 22.1229 20.9119C23.1699 20.9119 24.0187 21.7606 24.0187 22.8076Z" fill="white"/>
<path d="M25.6621 27.4207H21.112C20.5534 27.4207 20.1011 26.9679 20.1011 26.4097C20.1011 25.8515 20.5538 25.3988 21.112 25.3988H24.651V21.8596C24.651 21.301 25.1038 20.8486 25.662 20.8486C26.2206 20.8486 26.6733 21.3014 26.6733 21.8596V26.4096C26.6733 26.968 26.2205 27.4206 25.6622 27.4206L25.6621 27.4207Z" fill="white"/>
<path d="M35.7732 25.1144V27.4208H27.3682L27.3683 22.8074H32.6452C34.3832 22.8074 35.7733 23.1867 35.7733 25.1142L35.7732 25.1144Z" fill="white"/>
<path d="M36.2023 30.7073H19.7985C19.24 30.7073 18.7876 30.2546 18.7876 29.6964C18.7876 29.1382 19.2403 28.6854 19.7985 28.6854H36.2023C36.7609 28.6854 37.2133 29.1382 37.2133 29.6964C37.2134 30.2544 36.7609 30.7073 36.2023 30.7073Z" fill="white"/>
<defs>
<filter id="filter0_d_2710_4652" x="2" y="0" width="52" height="56.8029" filterUnits="userSpaceOnUse" color-interpolation-filters="sRGB">
<feFlood flood-opacity="0" result="BackgroundImageFix"/>
<feColorMatrix in="SourceAlpha" type="matrix" values="0 0 0 0 0 0 0 0 0 0 0 0 0 0 0 0 0 0 127 0" result="hardAlpha"/>
<feOffset dy="4"/>
<feGaussianBlur stdDeviation="2"/>
<feComposite in2="hardAlpha" operator="out"/>
<feColorMatrix type="matrix" values="0 0 0 0 0 0 0 0 0 0 0 0 0 0 0 0 0 0 0.25 0"/>
<feBlend mode="normal" in2="BackgroundImageFix" result="effect1_dropShadow_2710_4652"/>
<feBlend mode="normal" in="SourceGraphic" in2="effect1_dropShadow_2710_4652" result="shape"/>
</filter>
</defs>
</svg>
