<svg width="56" height="57" viewBox="0 0 56 57" fill="none" xmlns="http://www.w3.org/2000/svg">
<g filter="url(#filter0_d_2710_4705)">
<path fill-rule="evenodd" clip-rule="evenodd" d="M33.9972 43.1726C43.2327 40.5618 50 32.0712 50 22C50 9.84974 40.1503 0 28 0C15.8497 0 6 9.84974 6 22C6 32.0712 12.7673 40.5618 22.0028 43.1726L27.6516 48.6614C27.8456 48.85 28.1544 48.85 28.3484 48.6614L33.9972 43.1726Z" fill="white"/>
</g>
<circle cx="28" cy="22" r="18" fill="#5CD6A5"/>
<path d="M27.1046 20.8788C26.6951 21.2436 26.263 21.6372 25.8183 22.0404C25.3383 21.5092 24.9256 21.0325 24.6087 20.6485C23.2967 19.0646 21.9273 20.6676 20.3816 19.1285C19.3576 18.1045 17.2457 14.3481 18.276 13.3208C19.3096 12.2969 23.0885 14.3928 24.1123 15.4166C25.7026 17.0069 24.0195 18.2932 25.6419 19.6242C26.042 19.9539 26.5445 20.3859 27.1044 20.8787L27.1046 20.8788Z" fill="white"/>
<path d="M34.4897 29.4572C34.0673 29.8763 33.405 29.9884 32.7458 29.4604C32.6242 29.342 31.5746 28.2445 30.234 26.8269C29.546 26.0942 28.7749 25.275 28.0229 24.4622C28.5061 23.9375 28.9733 23.4255 29.3988 22.9551C30.3332 23.8126 31.2771 24.6894 32.093 25.4573C33.3954 26.6765 34.3777 27.6108 34.4897 27.7229C34.9665 28.1997 34.9728 28.974 34.4897 29.4572V29.4572Z" fill="white"/>
<path d="M37.9999 15.7557C37.9999 15.8452 37.9679 15.9348 37.8975 16.0021C37.8654 16.0341 35.4841 18.4052 35.6352 18.2548C33.7533 20.1367 32.2572 18.6153 30.4325 20.8051C28.7728 22.8133 23.2151 28.6688 22.4232 29.4608C21.9432 29.9375 21.1625 29.9375 20.6793 29.4575C20.1993 28.9776 20.1993 28.2031 20.6793 27.7232C20.708 27.6945 20.8008 27.608 20.9417 27.4737C22.4516 26.0169 27.3448 21.4269 29.373 19.7525C30.1698 19.0997 30.6721 18.1623 30.7808 17.1414C30.7841 17.1062 30.7872 17.0742 30.7904 17.039C30.8624 16.0893 31.3011 15.1961 31.9359 14.5752C31.968 14.5432 34.3493 12.1721 34.1982 12.3225C34.3453 12.1721 34.5981 12.1882 34.7294 12.3641C34.8318 12.5049 34.803 12.7033 34.6814 12.8249C34.4359 13.069 35.5702 11.9407 32.2815 15.2119C32.1247 15.3687 32.1247 15.6247 32.2815 15.7814H32.2847C32.4415 15.9414 32.6975 15.9414 32.8575 15.7814C36.2223 12.4298 35.06 13.5877 35.3117 13.3368C35.4493 13.2025 35.6701 13.2025 35.8045 13.3368L35.8077 13.34C35.9453 13.4744 35.9453 13.6952 35.8077 13.8295C35.5564 14.0795 36.718 12.924 33.3502 16.2742C33.1935 16.4342 33.1935 16.687 33.3502 16.847C33.5142 17.0109 33.7771 16.9988 33.923 16.847C37.2929 13.4903 36.1278 14.6507 36.3805 14.3991C36.5181 14.2647 36.7356 14.2647 36.8732 14.3991V14.4023C37.0108 14.5399 37.0108 14.7575 36.8765 14.8918C36.6197 15.1476 37.7947 13.9771 34.419 17.3397C34.2621 17.4964 34.2621 17.7525 34.419 17.9092C34.583 18.0732 34.8459 18.0611 34.9918 17.9092C38.2936 14.6205 37.1549 15.7548 37.4012 15.5094C37.5388 15.375 37.7596 15.375 37.8972 15.5126C37.9676 15.5799 37.9997 15.6695 37.9997 15.7558L37.9999 15.7557Z" fill="white"/>
<path d="M32.3459 29.9599L32.3203 29.9408L32.3011 29.9184C32.1636 29.7871 31.1748 28.7536 30.0708 27.5857C29.4244 27.8193 28.7269 27.9472 28.0005 27.9472C27.0469 27.9472 26.1445 27.7264 25.3382 27.336C24.2951 28.4399 23.4216 29.3551 23.0248 29.7615C24.4648 30.6703 26.1735 31.195 28.0006 31.195C29.6197 31.195 31.146 30.7822 32.474 30.0558C32.4324 30.0271 32.3876 29.995 32.346 29.9599L32.3459 29.9599ZM36.6081 18.1877C36.3073 18.4885 36.0865 18.7061 36.0865 18.7061C35.2705 19.5253 34.5026 19.794 33.7986 19.9316C33.997 20.5332 34.1057 21.1764 34.1057 21.845C34.1057 23.1666 33.6834 24.3921 32.9635 25.3937C34.029 26.392 34.8321 27.1599 34.941 27.2719C35.0754 27.4063 35.1875 27.5567 35.2706 27.7199C36.5729 26.1136 37.3505 24.0721 37.3505 21.8417C37.3505 20.546 37.0881 19.3107 36.6081 18.1876L36.6081 18.1877ZM21.8955 21.845C21.8955 21.3842 21.9468 20.9362 22.0459 20.5076C21.3676 20.4756 20.6509 20.2996 19.9308 19.5829C19.7228 19.3749 19.4668 19.0582 19.1981 18.6708C18.8429 19.6596 18.6477 20.7284 18.6477 21.8419C18.6477 23.829 19.2652 25.6655 20.3212 27.1793C20.4012 27.1056 20.5003 27.0097 20.5003 27.0097C20.9707 26.5554 21.7738 25.7906 22.7211 24.9074C22.1963 24.005 21.8955 22.9588 21.8955 21.8451L21.8955 21.845ZM28.0007 12.4921C26.2023 12.4921 24.5258 12.9976 23.0985 13.8775C23.7354 14.2679 24.2634 14.6646 24.564 14.9654C25.0311 15.4295 25.2711 15.8934 25.3928 16.3254C26.1864 15.9511 27.0695 15.7399 28.0007 15.7399C28.8102 15.7399 29.5813 15.8966 30.2886 16.1878C30.4966 15.4103 30.9126 14.6807 31.4884 14.1175C31.498 14.108 31.7828 13.8232 32.1476 13.4615C30.8965 12.8409 29.4917 12.4921 28.0008 12.4921H28.0007Z" fill="white"/>
<defs>
<filter id="filter0_d_2710_4705" x="2" y="0" width="52" height="56.8029" filterUnits="userSpaceOnUse" color-interpolation-filters="sRGB">
<feFlood flood-opacity="0" result="BackgroundImageFix"/>
<feColorMatrix in="SourceAlpha" type="matrix" values="0 0 0 0 0 0 0 0 0 0 0 0 0 0 0 0 0 0 127 0" result="hardAlpha"/>
<feOffset dy="4"/>
<feGaussianBlur stdDeviation="2"/>
<feComposite in2="hardAlpha" operator="out"/>
<feColorMatrix type="matrix" values="0 0 0 0 0 0 0 0 0 0 0 0 0 0 0 0 0 0 0.25 0"/>
<feBlend mode="normal" in2="BackgroundImageFix" result="effect1_dropShadow_2710_4705"/>
<feBlend mode="normal" in="SourceGraphic" in2="effect1_dropShadow_2710_4705" result="shape"/>
</filter>
</defs>
</svg>
