<svg width="56" height="57" viewBox="0 0 56 57" fill="none" xmlns="http://www.w3.org/2000/svg">
<g filter="url(#filter0_d_2710_4748)">
<path fill-rule="evenodd" clip-rule="evenodd" d="M33.9972 43.1726C43.2327 40.5618 50 32.0712 50 22C50 9.84974 40.1503 0 28 0C15.8497 0 6 9.84974 6 22C6 32.0712 12.7673 40.5618 22.0028 43.1726L27.6516 48.6614C27.8456 48.85 28.1544 48.85 28.3484 48.6614L33.9972 43.1726Z" fill="white"/>
</g>
<circle cx="28" cy="22" r="18" fill="#5C5CD6"/>
<path d="M33.0631 29.0411V20.3253C33.0631 20.0095 32.8105 19.7568 32.4947 19.7568H29.8001C29.6526 19.2095 29.0212 18.7463 28.2211 18.62V16.1989C28.3896 16.2199 28.558 16.2411 28.7264 16.2411C29.1474 16.2411 29.5265 16.1569 29.8844 16.0726C30.4317 15.9463 30.958 15.82 31.6739 16.0095C31.7161 16.0095 31.8002 16.0095 31.8424 15.9673C31.8845 15.9463 31.9265 15.8832 31.9265 15.8199V13.083C31.9265 12.9989 31.8424 12.8936 31.7581 12.8724C30.958 12.683 30.3686 12.8093 29.8002 12.9356C29.2949 13.0619 28.8317 13.1671 28.2423 13.0619L28.2422 12.6831C28.2422 12.4305 28.0527 12.22 27.779 12.22C27.5474 12.22 27.3368 12.4306 27.3368 12.6831V18.62C26.5158 18.7463 25.8841 19.1884 25.7369 19.7568H23.0843C22.7474 19.7568 22.5158 20.0093 22.5158 20.3252V29.0621C20.3684 29.3778 19 29.8831 19 30.4516C19 31.4201 22.9368 32.22 27.779 32.22C32.6211 32.22 36.5579 31.4199 36.5579 30.4516C36.5579 29.8831 35.1896 29.3778 33.0631 29.0411L33.0631 29.0411ZM29.9264 21.6516C29.9264 21.5253 30.0105 21.42 30.1369 21.42H31.2527C31.379 21.42 31.4843 21.5253 31.4843 21.6516V22.7674C31.4843 22.8937 31.379 22.978 31.2527 22.978H30.1369C30.0107 22.978 29.9264 22.8938 29.9264 22.7674V21.6516ZM29.9264 24.3885C29.9264 24.2622 30.0105 24.1779 30.1369 24.1779H31.2527C31.379 24.1779 31.4843 24.262 31.4843 24.3885V25.5043C31.4843 25.6306 31.379 25.7359 31.2527 25.7359H30.1369C30.0107 25.7359 29.9264 25.6306 29.9264 25.5043V24.3885ZM29.9052 27.1675C29.9052 27.0412 30.0105 26.9569 30.1368 26.9569H31.2526C31.3789 26.9569 31.4842 27.0411 31.4842 27.1675V28.2833C31.4842 28.4096 31.3789 28.5149 31.2526 28.5149H30.1368C30.0105 28.5149 29.9052 28.4096 29.9052 28.2833V27.1675ZM27.0001 21.6517C27.0001 21.5254 27.0842 21.4201 27.2106 21.4201H28.3264C28.4527 21.4201 28.558 21.5254 28.558 21.6517V22.7675C28.558 22.8938 28.4527 22.9781 28.3264 22.9781H27.2106C27.0843 22.9781 27.0001 22.8939 27.0001 22.7675V21.6517ZM27.0001 24.3886C27.0001 24.2623 27.0842 24.178 27.2106 24.178H28.3264C28.4527 24.178 28.558 24.2621 28.558 24.3886V25.5044C28.558 25.6307 28.4527 25.736 28.3264 25.736H27.2106C27.0843 25.736 27.0001 25.6307 27.0001 25.5044V24.3886ZM24.0737 21.6517C24.0737 21.5254 24.1579 21.4201 24.3053 21.4201H25.4001C25.5264 21.4201 25.6317 21.5254 25.6317 21.6517V22.7675C25.6317 22.8938 25.5264 22.9781 25.4001 22.9781H24.3053C24.179 22.9781 24.0737 22.8939 24.0737 22.7675V21.6517ZM24.0737 24.3886C24.0737 24.2623 24.1579 24.178 24.3053 24.178H25.4001C25.5264 24.178 25.6317 24.2621 25.6317 24.3886V25.5044C25.6317 25.6307 25.5264 25.736 25.4001 25.736H24.3053C24.179 25.736 24.0737 25.6307 24.0737 25.5044V24.3886ZM24.0737 27.1676C24.0737 27.0413 24.1579 26.957 24.3053 26.957H25.4001C25.5264 26.957 25.6317 27.0412 25.6317 27.1676V28.2834C25.6317 28.4097 25.5264 28.515 25.4001 28.515H24.3053C24.179 28.515 24.0737 28.4097 24.0737 28.2834V27.1676ZM27.0001 29.9044V27.1675C27.0001 27.0412 27.0842 26.9569 27.2106 26.9569H28.3264C28.4527 26.9569 28.558 27.041 28.558 27.1675V29.9044H27.0001Z" fill="white"/>
<defs>
<filter id="filter0_d_2710_4748" x="2" y="0" width="52" height="56.8029" filterUnits="userSpaceOnUse" color-interpolation-filters="sRGB">
<feFlood flood-opacity="0" result="BackgroundImageFix"/>
<feColorMatrix in="SourceAlpha" type="matrix" values="0 0 0 0 0 0 0 0 0 0 0 0 0 0 0 0 0 0 127 0" result="hardAlpha"/>
<feOffset dy="4"/>
<feGaussianBlur stdDeviation="2"/>
<feComposite in2="hardAlpha" operator="out"/>
<feColorMatrix type="matrix" values="0 0 0 0 0 0 0 0 0 0 0 0 0 0 0 0 0 0 0.25 0"/>
<feBlend mode="normal" in2="BackgroundImageFix" result="effect1_dropShadow_2710_4748"/>
<feBlend mode="normal" in="SourceGraphic" in2="effect1_dropShadow_2710_4748" result="shape"/>
</filter>
</defs>
</svg>
