<svg width="56" height="57" viewBox="0 0 56 57" fill="none" xmlns="http://www.w3.org/2000/svg">
<g filter="url(#filter0_d_2710_4850)">
<path fill-rule="evenodd" clip-rule="evenodd" d="M33.9972 43.1726C43.2327 40.5618 50 32.0712 50 22C50 9.84974 40.1503 0 28 0C15.8497 0 6 9.84974 6 22C6 32.0712 12.7673 40.5618 22.0028 43.1726L27.6516 48.6614C27.8456 48.85 28.1544 48.85 28.3484 48.6614L33.9972 43.1726Z" fill="white"/>
</g>
<circle cx="28" cy="22.11" r="18" fill="#D65C5C"/>
<path d="M37.6495 20.9937L33.9624 18.318V15.6422C33.9624 15.1787 33.5832 14.7995 33.1197 14.7995C32.6562 14.7995 32.277 15.1787 32.277 15.6422V17.096L28.5057 14.378C28.2107 14.1673 27.8104 14.1673 27.5154 14.378L18.3504 20.9937C17.9712 21.2677 17.8869 21.7944 18.1608 22.1735C18.4348 22.5527 18.9615 22.6371 19.3406 22.3631L20.4573 21.5625V29.4423C20.4573 29.9058 20.8365 30.285 21.3 30.285H34.6788C35.1423 30.285 35.5215 29.9058 35.5215 29.4423L35.5217 21.5625L36.6383 22.3631C36.7859 22.4685 36.9543 22.5317 37.144 22.5317C37.418 22.5317 37.6707 22.4053 37.8393 22.1735C38.1131 21.7942 38.0287 21.2675 37.6496 20.9936L37.6495 20.9937ZM33.836 28.5996H22.1638V20.3405L27.9999 16.1267L33.836 20.3405V28.5996Z" fill="white"/>
<path d="M27.1571 20.9094V22.4474H25.6191C25.1555 22.4474 24.7764 22.8266 24.7764 23.2901C24.7764 23.7536 25.1555 24.1328 25.6191 24.1328L27.1571 24.1329V25.6709C27.1571 26.1344 27.5362 26.5136 27.9997 26.5136C28.4633 26.5136 28.8424 26.1344 28.8424 25.6709V24.1539H30.3804C30.8439 24.1539 31.2231 23.7748 31.2231 23.3113C31.2231 22.8477 30.8439 22.4686 30.3804 22.4686H28.8424V20.9306C28.8424 20.467 28.4633 20.0879 27.9997 20.0879C27.5362 20.0667 27.1571 20.4459 27.1571 20.9094V20.9094Z" fill="white"/>
<defs>
<filter id="filter0_d_2710_4850" x="2" y="0" width="52" height="56.8029" filterUnits="userSpaceOnUse" color-interpolation-filters="sRGB">
<feFlood flood-opacity="0" result="BackgroundImageFix"/>
<feColorMatrix in="SourceAlpha" type="matrix" values="0 0 0 0 0 0 0 0 0 0 0 0 0 0 0 0 0 0 127 0" result="hardAlpha"/>
<feOffset dy="4"/>
<feGaussianBlur stdDeviation="2"/>
<feComposite in2="hardAlpha" operator="out"/>
<feColorMatrix type="matrix" values="0 0 0 0 0 0 0 0 0 0 0 0 0 0 0 0 0 0 0.25 0"/>
<feBlend mode="normal" in2="BackgroundImageFix" result="effect1_dropShadow_2710_4850"/>
<feBlend mode="normal" in="SourceGraphic" in2="effect1_dropShadow_2710_4850" result="shape"/>
</filter>
</defs>
</svg>
