<svg width="56" height="57" viewBox="0 0 56 57" fill="none" xmlns="http://www.w3.org/2000/svg">
<g filter="url(#filter0_d_2710_4902)">
<path fill-rule="evenodd" clip-rule="evenodd" d="M33.9972 43.1726C43.2327 40.5618 50 32.0712 50 22C50 9.84974 40.1503 0 28 0C15.8497 0 6 9.84974 6 22C6 32.0712 12.7673 40.5618 22.0028 43.1726L27.6516 48.6614C27.8456 48.85 28.1544 48.85 28.3484 48.6614L33.9972 43.1726Z" fill="white"/>
</g>
<circle cx="28" cy="22" r="18" fill="#AFBAD4"/>
<path d="M35.6608 31.3137C35.6921 31.5012 35.567 31.6574 35.4108 31.6574C33.1296 32.0325 30.4734 32.2199 27.8172 32.2199C25.161 32.2199 22.5048 32.0325 20.2549 31.6886C20.0986 31.6574 19.9736 31.5011 20.0048 31.3449L20.9422 24.7199C21.0673 23.9074 21.7234 23.2199 22.5985 22.9699C23.5359 22.6886 24.5671 22.5012 25.6922 22.3762C25.9109 22.3449 26.0985 22.5636 26.0359 22.7824C25.5671 24.2824 25.7546 25.9074 26.5672 27.3449L26.7234 25.1262L26.4109 24.4074C26.4109 24.3762 26.3797 24.3136 26.3797 24.2824V23.2824C26.3797 23.095 26.5047 22.9699 26.6922 22.9699H28.8797C29.036 22.9699 29.1922 23.095 29.1922 23.2824V24.2824C29.1922 24.3136 29.1922 24.3762 29.161 24.4074L28.8797 25.1262L29.036 27.3137C29.8172 25.845 30.036 24.2512 29.5985 22.7825C29.536 22.5639 29.7235 22.345 29.9422 22.3763C31.0358 22.5013 32.0671 22.6887 33.0047 22.9388C33.8797 23.1888 34.5672 23.9076 34.6921 24.72L35.6608 31.3137Z" fill="white"/>
<path d="M30.786 18.8763C30.4423 19.0949 29.7235 19.0949 29.3173 18.9701C29.2861 18.1263 28.5985 17.4701 27.7547 17.4701C26.8797 17.4701 26.1922 18.1889 26.1922 19.0326C26.1922 19.8764 26.9109 20.5952 27.7547 20.5952C27.911 20.5952 28.0672 20.564 28.2235 20.5327C28.5672 20.7202 28.9422 20.814 29.3171 20.8764C28.8796 21.3139 28.3483 21.5952 27.7546 21.5952C26.5046 21.5952 25.5046 20.3139 24.9733 18.9702C24.0983 18.8452 23.9733 17.0016 24.6921 16.5015C24.9733 14.8141 26.2546 13.5952 27.7545 13.5952C29.2545 13.5952 30.5358 14.8452 30.817 16.5015C31.4423 16.9701 31.3797 18.4702 30.786 18.8763L30.786 18.8763Z" fill="white"/>
<path d="M33.2857 17.845V18.8138C33.2857 19.3138 32.8794 19.72 32.4106 19.72C32.1606 19.8451 31.0981 20.2825 29.9731 20.2825C29.3793 20.2825 28.7856 20.1575 28.2543 19.8138C28.0981 19.9076 27.9418 19.97 27.7544 19.97C27.2231 19.97 26.8169 19.5325 26.8169 19.0326C26.8169 18.5013 27.2544 18.0952 27.7544 18.0952C28.2857 18.0952 28.6918 18.5327 28.6918 19.0326C28.6918 19.1264 28.6606 19.2513 28.6294 19.3451C29.5356 19.9388 30.8481 19.6263 31.5981 19.3763C31.473 19.2201 31.4106 19.0012 31.4106 18.8138V17.845C31.4106 17.4387 31.6606 17.095 32.0043 16.97C31.7544 14.6576 29.9418 12.845 27.7232 12.845C25.5046 12.845 23.7231 14.6576 23.4734 17.0013C23.8171 17.1263 24.0671 17.47 24.0671 17.8763V18.8451C24.0671 19.345 23.6609 19.7513 23.1297 19.7513H23.0985C22.5985 19.7513 22.161 19.345 22.161 18.8451L22.1609 17.845C22.1609 17.4387 22.4421 17.0637 22.8171 16.9699C23.0983 14.2825 25.192 12.22 27.7232 12.22C30.2544 12.22 32.3796 14.2825 32.6293 16.9699C33.0044 17.095 33.2856 17.4388 33.2856 17.845L33.2857 17.845Z" fill="white"/>
<defs>
<filter id="filter0_d_2710_4902" x="2" y="0" width="52" height="56.8029" filterUnits="userSpaceOnUse" color-interpolation-filters="sRGB">
<feFlood flood-opacity="0" result="BackgroundImageFix"/>
<feColorMatrix in="SourceAlpha" type="matrix" values="0 0 0 0 0 0 0 0 0 0 0 0 0 0 0 0 0 0 127 0" result="hardAlpha"/>
<feOffset dy="4"/>
<feGaussianBlur stdDeviation="2"/>
<feComposite in2="hardAlpha" operator="out"/>
<feColorMatrix type="matrix" values="0 0 0 0 0 0 0 0 0 0 0 0 0 0 0 0 0 0 0.25 0"/>
<feBlend mode="normal" in2="BackgroundImageFix" result="effect1_dropShadow_2710_4902"/>
<feBlend mode="normal" in="SourceGraphic" in2="effect1_dropShadow_2710_4902" result="shape"/>
</filter>
</defs>
</svg>
