<svg width="56" height="57" viewBox="0 0 56 57" fill="none" xmlns="http://www.w3.org/2000/svg">
<g filter="url(#filter0_d_2710_4149)">
<path fill-rule="evenodd" clip-rule="evenodd" d="M33.9972 43.1726C43.2327 40.5618 50 32.0712 50 22C50 9.84974 40.1503 0 28 0C15.8497 0 6 9.84974 6 22C6 32.0712 12.7673 40.5618 22.0028 43.1726L27.6516 48.6614C27.8456 48.85 28.1544 48.85 28.3484 48.6614L33.9972 43.1726Z" fill="white"/>
</g>
<g clip-path="url(#clip0_2710_4149)">
<circle cx="28" cy="22.11" r="18" fill="white"/>
<path fill-rule="evenodd" clip-rule="evenodd" d="M25.5747 20.7195L27.7544 7.66304C19.9007 7.8075 13.5585 14.2183 13.5585 22.11C13.5585 24.566 14.232 26.9317 15.3481 29.0987L25.5747 20.7195ZM27.982 24.9091L15.6099 29.5502C18.1815 33.8662 22.9833 36.5389 27.9982 36.5389C33.0384 36.5389 37.777 33.8662 40.3792 29.5502L27.982 24.9091ZM30.4072 20.7195L40.6483 29.0987C41.7969 26.9497 42.4559 24.566 42.4559 22.11C42.4559 14.1461 36.1409 7.8978 28.2619 7.64498L30.4072 20.7195ZM43.9964 22.11C43.9964 30.9046 36.7891 38.11 27.9982 38.11C19.2145 38.11 12 30.9046 12 22.11C12 13.3154 19.2072 6.10999 27.9982 6.10999C36.7946 6.10999 43.9964 13.3154 43.9964 22.11Z" fill="white"/>
<path d="M43.9964 22.11C43.9964 30.9046 36.7891 38.11 27.9982 38.11C19.2145 38.11 12 30.9046 12 22.11C12 13.3154 19.2072 6.10999 27.9982 6.10999C36.7946 6.10999 43.9964 13.3154 43.9964 22.11ZM24.4533 23.8978L24.4334 23.9339L24.484 23.9159L27.5485 22.11L27.005 21.803L24.4533 23.8978ZM38.4433 28.0152H38.5011L38.4686 27.961L29.172 21.7127L28.4659 22.11L38.4433 28.0152ZM27.9025 10.9136L27.8772 10.8775L27.8501 10.9136L27.2036 21.3696L27.7797 21.7127L27.9025 10.9136ZM37.5964 10.8233L37.6163 10.8775C38.3729 11.5818 39.0898 12.3402 39.7382 13.1529C41.7571 15.6811 42.8099 18.8775 42.8099 22.11C42.8099 24.6563 42.1291 27.1122 40.912 29.3335L41.0781 29.6405L40.7314 29.6585C38.0713 34.101 33.1847 36.9001 27.9982 36.9001C22.8045 36.9001 17.945 34.119 15.2831 29.6585L14.9562 29.6405L15.0916 29.3335C14.3152 27.9068 13.7824 26.3899 13.4682 24.8007L13.4375 24.7646L13.4176 24.8188C13.6235 26.4982 14.1544 28.1416 14.9562 29.6405C17.5729 34.5524 22.4524 37.4418 28.0054 37.4418C36.4352 37.4418 43.3102 30.5253 43.3102 22.11C43.3102 17.794 41.0853 13.4418 37.6487 10.8233H37.5964ZM27.7544 7.66304C19.9007 7.8075 13.5585 14.2183 13.5585 22.11C13.5585 24.566 14.232 26.9317 15.3481 29.0987L25.3688 20.882L26.1905 21.3515L15.2452 29.3876L15.2 29.496H15.3228L27.7671 22.4892L27.7418 24.9994L15.6099 29.5502C18.1815 33.8662 22.9833 36.5389 27.9982 36.5389C33.0384 36.5389 37.777 33.8662 40.3792 29.5502L28.2546 24.9994L28.2222 22.4892L40.7007 29.496H40.809L40.7584 29.4057L29.8059 21.3515L30.6203 20.882L40.6483 29.0987C41.7969 26.9497 42.4559 24.566 42.4559 22.11C42.4559 14.1461 36.1409 7.8978 28.2619 7.64498L30.3639 20.4486L28.2167 21.7127L28.0614 7.41022L27.9982 7.33798L27.9404 7.41022L26.4271 20.9L25.6199 20.4486L27.7544 7.66304ZM17.7842 33.8662C14.6745 30.742 12.8849 26.5524 12.8849 22.11C12.8849 13.7849 19.675 6.99487 27.9982 6.99487C35.2885 6.99487 41.5007 12.268 43.3228 19.1845L43.3607 19.2025L43.3806 19.1664C41.925 11.8526 35.507 6.47117 27.9982 6.47117C19.4005 6.47117 12.3539 13.5141 12.3539 22.11C12.3539 26.6427 14.3675 30.9226 17.7517 33.9204H17.7969L17.7842 33.8662Z" fill="#231F20"/>
</g>
<defs>
<filter id="filter0_d_2710_4149" x="2" y="0" width="52" height="56.8029" filterUnits="userSpaceOnUse" color-interpolation-filters="sRGB">
<feFlood flood-opacity="0" result="BackgroundImageFix"/>
<feColorMatrix in="SourceAlpha" type="matrix" values="0 0 0 0 0 0 0 0 0 0 0 0 0 0 0 0 0 0 127 0" result="hardAlpha"/>
<feOffset dy="4"/>
<feGaussianBlur stdDeviation="2"/>
<feComposite in2="hardAlpha" operator="out"/>
<feColorMatrix type="matrix" values="0 0 0 0 0 0 0 0 0 0 0 0 0 0 0 0 0 0 0.25 0"/>
<feBlend mode="normal" in2="BackgroundImageFix" result="effect1_dropShadow_2710_4149"/>
<feBlend mode="normal" in="SourceGraphic" in2="effect1_dropShadow_2710_4149" result="shape"/>
</filter>
<clipPath id="clip0_2710_4149">
<rect x="10" y="4.10999" width="36" height="36" rx="18" fill="white"/>
</clipPath>
</defs>
</svg>
