<svg width="56" height="57" viewBox="0 0 56 57" fill="none" xmlns="http://www.w3.org/2000/svg">
<g filter="url(#filter0_d_2710_4933)">
<path fill-rule="evenodd" clip-rule="evenodd" d="M33.9972 43.1726C43.2327 40.5618 50 32.0712 50 22C50 9.84974 40.1503 0 28 0C15.8497 0 6 9.84974 6 22C6 32.0712 12.7673 40.5618 22.0028 43.1726L27.6516 48.6614C27.8456 48.85 28.1544 48.85 28.3484 48.6614L33.9972 43.1726Z" fill="white"/>
</g>
<circle cx="28" cy="22" r="18" fill="#D65CA5"/>
<path d="M23.0786 17.5402C23.0786 16.7727 23.4881 16.0634 24.1528 15.6796C24.8175 15.2958 25.6364 15.2958 26.3012 15.6796C26.9659 16.0634 27.3754 16.7726 27.3754 17.5402V18.5168H28.5472V17.5402C28.5472 16.354 27.9144 15.2579 26.8871 14.6648C25.8598 14.0717 24.5942 14.0717 23.5668 14.6648C22.5395 15.2579 21.9067 16.354 21.9067 17.5402V18.5168H23.0786L23.0786 17.5402Z" fill="white"/>
<path d="M37.9933 29.9528L36.8214 22.1405C36.8007 22.0017 36.7308 21.875 36.6245 21.7835C36.5182 21.692 36.3826 21.6416 36.2422 21.6416H30.3831C30.2427 21.6416 30.1071 21.692 30.0008 21.7835C29.8945 21.875 29.8246 22.0017 29.8038 22.1405L28.632 29.9528C28.6066 30.1215 28.656 30.2928 28.7673 30.4221C28.8785 30.5514 29.0406 30.6258 29.2113 30.6258H37.4143C37.5849 30.6258 37.747 30.5514 37.8582 30.4221C37.9695 30.2928 38.0189 30.1215 37.9935 29.9528H37.9933ZM35.0703 24.1808C35.0703 24.8088 34.7353 25.389 34.1915 25.7031C33.6477 26.0171 32.9775 26.0171 32.4337 25.7031C31.8899 25.389 31.5548 24.8088 31.5548 24.1808V23.3996C31.5548 23.1902 31.6666 22.9968 31.8478 22.8922C32.029 22.7874 32.2525 22.7874 32.4337 22.8922C32.6149 22.9968 32.7267 23.1902 32.7267 23.3996V24.1808C32.7267 24.3902 32.8384 24.5835 33.0196 24.6882C33.2008 24.7929 33.4243 24.7929 33.6055 24.6882C33.7867 24.5835 33.8985 24.3902 33.8985 24.1808V23.3996C33.8985 23.1902 34.0102 22.9968 34.1915 22.8922C34.3727 22.7874 34.5962 22.7874 34.7774 22.8922C34.9586 22.9968 35.0703 23.1902 35.0703 23.3996L35.0703 24.1808Z" fill="white"/>
<path d="M30.383 20.4698H30.7537L30.4911 18.9996H30.4913C30.467 18.8641 30.396 18.7416 30.2905 18.6533C30.1849 18.565 30.0518 18.5167 29.9143 18.5167H28.5471V21.0557C28.5471 21.2651 28.4354 21.4585 28.2542 21.5631C28.073 21.6679 27.8495 21.6679 27.6683 21.5631C27.487 21.4585 27.3753 21.2651 27.3753 21.0557V18.5167H23.0786V21.0557C23.0786 21.2651 22.9669 21.4585 22.7856 21.5631C22.6044 21.6679 22.3809 21.6679 22.1997 21.5631C22.0185 21.4585 21.9068 21.2651 21.9068 21.0557V18.5167H20.5396C20.4021 18.5167 20.269 18.565 20.1634 18.6533C20.0579 18.7416 19.9869 18.8641 19.9626 18.9996L18.6541 26.329H27.9899L28.645 21.9666C28.7054 21.5494 28.9147 21.1681 29.2342 20.893C29.5536 20.6179 29.9617 20.4675 30.3833 20.4697L30.383 20.4698Z" fill="white"/>
<path d="M27.8145 27.5011H18.4444L18.0091 29.937C17.9787 30.1078 18.0253 30.2833 18.1368 30.4162C18.2481 30.5493 18.4127 30.626 18.5861 30.626H27.5538C27.4576 30.3547 27.4297 30.0638 27.4726 29.7792L27.8145 27.5011Z" fill="white"/>
<defs>
<filter id="filter0_d_2710_4933" x="2" y="0" width="52" height="56.8029" filterUnits="userSpaceOnUse" color-interpolation-filters="sRGB">
<feFlood flood-opacity="0" result="BackgroundImageFix"/>
<feColorMatrix in="SourceAlpha" type="matrix" values="0 0 0 0 0 0 0 0 0 0 0 0 0 0 0 0 0 0 127 0" result="hardAlpha"/>
<feOffset dy="4"/>
<feGaussianBlur stdDeviation="2"/>
<feComposite in2="hardAlpha" operator="out"/>
<feColorMatrix type="matrix" values="0 0 0 0 0 0 0 0 0 0 0 0 0 0 0 0 0 0 0.25 0"/>
<feBlend mode="normal" in2="BackgroundImageFix" result="effect1_dropShadow_2710_4933"/>
<feBlend mode="normal" in="SourceGraphic" in2="effect1_dropShadow_2710_4933" result="shape"/>
</filter>
</defs>
</svg>
