<svg width="56" height="57" viewBox="0 0 56 57" fill="none" xmlns="http://www.w3.org/2000/svg">
<g filter="url(#filter0_d_2710_5378)">
<path fill-rule="evenodd" clip-rule="evenodd" d="M33.9972 43.1726C43.2327 40.5618 50 32.0712 50 22C50 9.84974 40.1503 0 28 0C15.8497 0 6 9.84974 6 22C6 32.0712 12.7673 40.5618 22.0028 43.1726L27.6516 48.6614C27.8456 48.85 28.1544 48.85 28.3484 48.6614L33.9972 43.1726Z" fill="white"/>
</g>
<circle cx="28" cy="22" r="18" fill="#BED65C"/>
<path fill-rule="evenodd" clip-rule="evenodd" d="M20.3112 12.8491H21.8595V12.844C21.8595 12.4399 22.1895 12.11 22.5933 12.11H32.6186C33.0225 12.11 33.3523 12.4399 33.3523 12.844V12.8491H34.9005C35.3044 12.8491 35.6342 13.1791 35.6342 13.5831V15.7652H36.4776C36.8817 15.7652 37.2116 16.0951 37.2116 16.4992V18.4718C37.2116 18.8759 36.8816 19.2058 36.4776 19.2058H35.6342V28.937C35.6342 29.341 35.3043 29.6711 34.9005 29.6711H33.7707V31.3759C33.7707 31.7799 33.4408 32.11 33.037 32.11H31.8286C31.4245 32.11 31.0945 31.7799 31.0945 31.3759V29.6711H24.1172V31.3759C24.1172 31.7799 23.7872 32.11 23.3832 32.11H22.1747C21.7708 32.11 21.441 31.7799 21.441 31.3759V29.6711H20.3109C19.9066 29.6711 19.5769 29.3409 19.5769 28.937V19.2058H18.734C18.3299 19.2058 18 18.8759 18 18.4718V16.4992C18 16.0951 18.33 15.7652 18.734 15.7652H19.5769V13.5831C19.5769 13.179 19.9065 12.8491 20.3109 12.8491H20.3112ZM22.2467 15.3588H32.9654C33.3695 15.3588 33.6994 15.6888 33.6994 16.0929V21.7935C33.6994 22.1978 33.3694 22.5276 32.9654 22.5276H22.2467C21.8426 22.5276 21.5126 22.198 21.5126 21.7935V16.0929C21.5126 15.6888 21.8426 15.3588 22.2467 15.3588ZM21.984 24.5345H24.3388C25.3455 24.5345 25.3455 26.4459 24.3388 26.4459H21.984C20.9774 26.4459 20.9774 24.5345 21.984 24.5345ZM30.8728 24.5345H33.2281C34.2346 24.5345 34.2346 26.4459 33.2281 26.4459H30.8728C29.8666 26.4459 29.8666 24.5345 30.8728 24.5345Z" fill="white"/>
<defs>
<filter id="filter0_d_2710_5378" x="2" y="0" width="52" height="56.8029" filterUnits="userSpaceOnUse" color-interpolation-filters="sRGB">
<feFlood flood-opacity="0" result="BackgroundImageFix"/>
<feColorMatrix in="SourceAlpha" type="matrix" values="0 0 0 0 0 0 0 0 0 0 0 0 0 0 0 0 0 0 127 0" result="hardAlpha"/>
<feOffset dy="4"/>
<feGaussianBlur stdDeviation="2"/>
<feComposite in2="hardAlpha" operator="out"/>
<feColorMatrix type="matrix" values="0 0 0 0 0 0 0 0 0 0 0 0 0 0 0 0 0 0 0.25 0"/>
<feBlend mode="normal" in2="BackgroundImageFix" result="effect1_dropShadow_2710_5378"/>
<feBlend mode="normal" in="SourceGraphic" in2="effect1_dropShadow_2710_5378" result="shape"/>
</filter>
</defs>
</svg>
