<svg width="56" height="57" viewBox="0 0 56 57" fill="none" xmlns="http://www.w3.org/2000/svg">
<g filter="url(#filter0_d_2712_4031)">
<path fill-rule="evenodd" clip-rule="evenodd" d="M33.9972 43.1726C43.2327 40.5618 50 32.0712 50 22C50 9.84974 40.1503 0 28 0C15.8497 0 6 9.84974 6 22C6 32.0712 12.7673 40.5618 22.0028 43.1726L27.6516 48.6614C27.8456 48.85 28.1544 48.85 28.3484 48.6614L33.9972 43.1726Z" fill="white"/>
</g>
<g clip-path="url(#clip0_2712_4031)">
<circle cx="28" cy="22.11" r="18" fill="white"/>
<path d="M32.2851 21.2043H36.3488V25.268H32.2851V21.2043ZM29.6984 27.7244C29.6984 29.0135 29.8866 29.8503 30.2642 30.2361C30.5834 30.5649 31.1275 30.7673 31.8902 30.8427C32.1164 30.8617 32.5042 30.8705 33.0517 30.8705V32H23.2602V30.8705C24.0467 30.8705 24.6261 30.8331 25.001 30.7577C25.7597 30.5981 26.2379 30.156 26.4341 29.4312C26.5367 29.0556 26.589 28.4865 26.589 27.7244V12.9604C24.9277 13.0073 23.6283 13.5574 22.6903 14.6116C21.7992 15.6202 21.2559 17.164 21.0582 19.2438L20 19.0611L20.197 12H36.1149L36.3126 19.0611L35.253 19.2438C35.056 17.164 34.5079 15.6202 33.6134 14.6116C32.6706 13.5574 31.3652 13.0073 29.6984 12.9604V27.7244ZM20.0193 21.2043H24.083V25.268H20.0193V21.2043Z" fill="#E2007A"/>
</g>
<defs>
<filter id="filter0_d_2712_4031" x="2" y="0" width="52" height="56.8029" filterUnits="userSpaceOnUse" color-interpolation-filters="sRGB">
<feFlood flood-opacity="0" result="BackgroundImageFix"/>
<feColorMatrix in="SourceAlpha" type="matrix" values="0 0 0 0 0 0 0 0 0 0 0 0 0 0 0 0 0 0 127 0" result="hardAlpha"/>
<feOffset dy="4"/>
<feGaussianBlur stdDeviation="2"/>
<feComposite in2="hardAlpha" operator="out"/>
<feColorMatrix type="matrix" values="0 0 0 0 0 0 0 0 0 0 0 0 0 0 0 0 0 0 0.25 0"/>
<feBlend mode="normal" in2="BackgroundImageFix" result="effect1_dropShadow_2712_4031"/>
<feBlend mode="normal" in="SourceGraphic" in2="effect1_dropShadow_2712_4031" result="shape"/>
</filter>
<clipPath id="clip0_2712_4031">
<rect x="10" y="4.10999" width="36" height="36" rx="18" fill="white"/>
</clipPath>
</defs>
</svg>
