<svg width="56" height="57" viewBox="0 0 56 57" fill="none" xmlns="http://www.w3.org/2000/svg">
<g filter="url(#filter0_d_2710_4959)">
<path fill-rule="evenodd" clip-rule="evenodd" d="M33.9972 43.1726C43.2327 40.5618 50 32.0712 50 22C50 9.84974 40.1503 0 28 0C15.8497 0 6 9.84974 6 22C6 32.0712 12.7673 40.5618 22.0028 43.1726L27.6516 48.6614C27.8456 48.85 28.1544 48.85 28.3484 48.6614L33.9972 43.1726Z" fill="white"/>
</g>
<circle cx="28" cy="22.11" r="18" fill="#D65C5C"/>
<path fill-rule="evenodd" clip-rule="evenodd" d="M28.0873 22.9112C31.219 22.9112 33.7657 20.3636 33.7657 17.232C33.7656 14.1004 31.2188 11.5532 28.0873 11.5532C24.956 11.5532 22.4089 14.1004 22.4089 17.2324C22.4094 20.3639 24.9566 22.9112 28.0873 22.9112ZM33.1055 24.8822L33.1055 24.8823L33.1053 24.8822L33.1055 24.8822ZM33.1055 24.8823C33.2493 25.195 33.3428 25.5349 33.3732 25.8932C34.0325 26.041 34.5272 26.6302 34.5272 27.3335C34.5272 28.148 33.8646 28.8106 33.0502 28.8106C32.2357 28.8106 31.5731 28.148 31.5731 27.3335C31.5731 26.6432 32.0501 26.0635 32.6912 25.9023C32.6435 25.4541 32.4694 25.0443 32.2075 24.7053C31.9544 24.6614 31.6961 24.6214 31.4325 24.5855L28.0873 27.7201L24.742 24.5859C24.417 24.6299 24.0995 24.6798 23.7909 24.7359C23.5085 25.1133 23.3364 25.5762 23.32 26.0792C23.4516 26.1556 23.558 26.2735 23.6234 26.4168C24.1088 26.6459 24.5374 27.1281 24.8657 27.8146C24.9207 27.9303 24.9277 28.0608 24.8876 28.1798C25.0843 28.6863 25.1969 29.24 25.1969 29.7049C25.1969 30.3564 25.1969 30.9726 24.4867 31.1306C24.4097 31.1947 24.3136 31.2297 24.2125 31.2297H23.7381C23.5001 31.2297 23.3067 31.0358 23.3067 30.7982C23.312 30.556 23.5055 30.3667 23.7381 30.3667H24.2125C24.2613 30.3667 24.3089 30.375 24.3545 30.3913C24.3832 30.3827 24.3922 30.3761 24.3922 30.3761C24.445 30.2824 24.445 29.8924 24.445 29.7052C24.445 29.327 24.3506 28.871 24.1849 28.4476C24.0988 28.3989 24.0294 28.3249 23.9868 28.2355C23.6989 27.6331 23.3077 27.2439 22.99 27.2439C22.6649 27.2439 22.2542 27.6646 21.9679 28.2901C21.9211 28.3919 21.839 28.4751 21.7379 28.5246C21.5881 28.9307 21.5058 29.3481 21.5058 29.7048C21.5058 29.862 21.5058 30.2795 21.5657 30.3773H21.5659L21.5672 30.3779C21.5713 30.3799 21.5858 30.387 21.6174 30.3948C21.667 30.3757 21.7185 30.3661 21.7721 30.3661H22.2475C22.4751 30.3661 22.6643 30.5444 22.6784 30.7722L22.6818 30.7858L22.6792 30.7979C22.6792 31.0358 22.4856 31.2294 22.2478 31.2294H21.7724C21.6781 31.2294 21.587 31.198 21.512 31.1404C21.2404 31.0892 21.0493 30.9692 20.9282 30.7746C20.7814 30.5392 20.7543 30.2294 20.7543 29.7044C20.7543 29.2438 20.8606 28.7137 21.0537 28.2071C21.0253 28.0987 21.0348 27.9855 21.0819 27.8836C21.2832 27.4437 21.5391 27.0669 21.8219 26.7944C21.9774 26.6444 22.1443 26.5241 22.3191 26.4363C22.3851 26.2827 22.499 26.1568 22.6389 26.077C22.6492 25.6659 22.7398 25.2752 22.8977 24.9193C20.0133 25.5902 18.0869 26.802 18.0869 28.1859C18.0869 30.2954 18.0869 32.0057 28.0867 32.0057C38.0869 32.0057 38.0869 30.2956 38.0869 28.1859C38.0871 26.7751 36.0835 25.5441 33.1055 24.8823ZM33.0502 28.0153C33.4269 28.0153 33.732 27.7102 33.732 27.3337C33.732 26.957 33.4269 26.6519 33.0502 26.6519C32.6738 26.6519 32.3686 26.957 32.3686 27.3337C32.3686 27.7102 32.6738 28.0153 33.0502 28.0153Z" fill="white"/>
<defs>
<filter id="filter0_d_2710_4959" x="2" y="0" width="52" height="56.8029" filterUnits="userSpaceOnUse" color-interpolation-filters="sRGB">
<feFlood flood-opacity="0" result="BackgroundImageFix"/>
<feColorMatrix in="SourceAlpha" type="matrix" values="0 0 0 0 0 0 0 0 0 0 0 0 0 0 0 0 0 0 127 0" result="hardAlpha"/>
<feOffset dy="4"/>
<feGaussianBlur stdDeviation="2"/>
<feComposite in2="hardAlpha" operator="out"/>
<feColorMatrix type="matrix" values="0 0 0 0 0 0 0 0 0 0 0 0 0 0 0 0 0 0 0.25 0"/>
<feBlend mode="normal" in2="BackgroundImageFix" result="effect1_dropShadow_2710_4959"/>
<feBlend mode="normal" in="SourceGraphic" in2="effect1_dropShadow_2710_4959" result="shape"/>
</filter>
</defs>
</svg>
