<svg width="56" height="57" viewBox="0 0 56 57" fill="none" xmlns="http://www.w3.org/2000/svg">
<g filter="url(#filter0_d_2710_5227)">
<path fill-rule="evenodd" clip-rule="evenodd" d="M33.9972 43.1726C43.2327 40.5618 50 32.0712 50 22C50 9.84974 40.1503 0 28 0C15.8497 0 6 9.84974 6 22C6 32.0712 12.7673 40.5618 22.0028 43.1726L27.6516 48.6614C27.8456 48.85 28.1544 48.85 28.3484 48.6614L33.9972 43.1726Z" fill="white"/>
</g>
<circle cx="28" cy="22" r="18" fill="#001638"/>
<path d="M35.991 12.11H19.6305C18.7304 12.11 18 12.8404 18 13.7405V30.4795C18 31.3761 18.7304 32.11 19.6305 32.11H35.991C36.8911 32.11 37.6215 31.3761 37.6215 30.4795V13.7405C37.6215 12.8404 36.8911 12.11 35.991 12.11ZM35.6648 30.1534H19.9565L19.9568 14.0666H35.665L35.6648 30.1534Z" fill="white"/>
<path d="M34.1974 17.8138C34.1974 18.3552 33.7604 18.7922 33.219 18.7922H22.4023C21.8643 18.7922 21.424 18.3552 21.424 17.8138C21.424 17.2758 21.8641 16.8354 22.4023 16.8354H33.219C33.7604 16.8354 34.1974 17.2756 34.1974 17.8138Z" fill="white"/>
<path d="M26.1002 22.1085C26.1002 22.6499 25.66 23.0869 25.1218 23.0869H22.4022C21.8642 23.0869 21.4238 22.6499 21.4238 22.1085C21.4238 21.5671 21.864 21.1301 22.4022 21.1301H25.1218C25.6598 21.1301 26.1002 21.5673 26.1002 22.1085Z" fill="white"/>
<path d="M26.1002 26.4555C26.1002 26.9969 25.66 27.4339 25.1218 27.4339H22.4022C21.8642 27.4339 21.4238 26.9969 21.4238 26.4555C21.4238 25.9176 21.864 25.4772 22.4022 25.4772H25.1218C25.6598 25.4772 26.1002 25.9176 26.1002 26.4555Z" fill="white"/>
<path d="M33.9301 23.0379L30.5351 26.4359C30.3427 26.6249 30.0915 26.7232 29.8434 26.7232C29.5922 26.7232 29.3416 26.6249 29.1491 26.4359L27.8448 25.1316C27.4633 24.7501 27.4633 24.1307 27.8448 23.7456C28.2263 23.3641 28.8496 23.3641 29.2308 23.7456L29.8436 24.3591L32.5473 21.6556C32.9288 21.2737 33.5482 21.2737 33.9299 21.6556C34.3116 22.0368 34.3116 22.6565 33.9301 23.0379H33.9301Z" fill="white"/>
<defs>
<filter id="filter0_d_2710_5227" x="2" y="0" width="52" height="56.8029" filterUnits="userSpaceOnUse" color-interpolation-filters="sRGB">
<feFlood flood-opacity="0" result="BackgroundImageFix"/>
<feColorMatrix in="SourceAlpha" type="matrix" values="0 0 0 0 0 0 0 0 0 0 0 0 0 0 0 0 0 0 127 0" result="hardAlpha"/>
<feOffset dy="4"/>
<feGaussianBlur stdDeviation="2"/>
<feComposite in2="hardAlpha" operator="out"/>
<feColorMatrix type="matrix" values="0 0 0 0 0 0 0 0 0 0 0 0 0 0 0 0 0 0 0.25 0"/>
<feBlend mode="normal" in2="BackgroundImageFix" result="effect1_dropShadow_2710_5227"/>
<feBlend mode="normal" in="SourceGraphic" in2="effect1_dropShadow_2710_5227" result="shape"/>
</filter>
</defs>
</svg>
