<svg width="56" height="57" viewBox="0 0 56 57" fill="none" xmlns="http://www.w3.org/2000/svg">
<g filter="url(#filter0_d_2710_5173)">
<path fill-rule="evenodd" clip-rule="evenodd" d="M33.9972 43.1726C43.2327 40.5618 50 32.0712 50 22C50 9.84974 40.1503 0 28 0C15.8497 0 6 9.84974 6 22C6 32.0712 12.7673 40.5618 22.0028 43.1726L27.6516 48.6614C27.8456 48.85 28.1544 48.85 28.3484 48.6614L33.9972 43.1726Z" fill="white"/>
</g>
<circle cx="28" cy="22.11" r="18" fill="#A5D65C"/>
<path d="M23.4986 19.0334C24.9933 19.4462 26.1659 20.6386 26.5495 22.1462H31.7094C32.0562 22.1462 32.3377 21.8647 32.3377 21.5179V14.8665C32.3377 14.5197 32.0562 14.2382 31.7094 14.2382H24.1272C23.7803 14.2382 23.4989 14.5197 23.4989 14.8665V19.0335L23.4986 19.0334ZM24.6394 26.902C23.9725 27.3192 23.1852 27.5607 22.3418 27.5607C19.9392 27.5607 18 25.6171 18 23.219C18 21.0479 19.5906 19.2522 21.6693 18.9289V12.7386C21.6693 12.3916 21.9508 12.11 22.298 12.11H33.538C33.885 12.11 34.1667 12.3915 34.1667 12.7386V24.6142H35.2377V16.9953C35.2377 16.6483 35.5192 16.3669 35.8663 16.3669H37.38C38.2067 16.3669 38.2067 17.6236 37.38 17.6236H36.4948V25.2425C36.4948 25.5895 36.2133 25.8711 35.8664 25.8711H34.1669V26.9053L24.6395 26.902L24.6394 26.902ZM36.4648 28.0726C36.8117 28.0726 37.0934 28.354 37.0934 28.7009V31.2284C37.0934 31.5753 36.8119 31.857 36.4648 31.857H19.3715C19.0245 31.857 18.7428 31.5755 18.7428 31.2284V28.7009C18.7428 28.354 19.0243 28.0726 19.3715 28.0726H36.4648ZM20.7974 23.1736L22.3916 20.995C22.5804 20.7391 22.9933 20.8813 22.9771 21.2033L22.904 22.5779L23.6626 22.6702C23.9082 22.7003 24.0366 22.9875 23.8823 23.1898L22.171 25.4336C21.9861 25.7041 21.5551 25.5577 21.5794 25.2262L21.6971 23.6904H21.0589C20.7961 23.6876 20.6385 23.3901 20.7972 23.1735L20.7974 23.1736ZM22.3416 20.1339C20.6377 20.1339 19.2567 21.5152 19.2567 23.219C19.2567 24.9236 20.6356 26.3039 22.3416 26.3039C24.0483 26.3039 25.4266 24.9255 25.4266 23.219C25.4266 21.5138 24.0471 20.1339 22.3416 20.1339Z" fill="white"/>
<defs>
<filter id="filter0_d_2710_5173" x="2" y="0" width="52" height="56.8029" filterUnits="userSpaceOnUse" color-interpolation-filters="sRGB">
<feFlood flood-opacity="0" result="BackgroundImageFix"/>
<feColorMatrix in="SourceAlpha" type="matrix" values="0 0 0 0 0 0 0 0 0 0 0 0 0 0 0 0 0 0 127 0" result="hardAlpha"/>
<feOffset dy="4"/>
<feGaussianBlur stdDeviation="2"/>
<feComposite in2="hardAlpha" operator="out"/>
<feColorMatrix type="matrix" values="0 0 0 0 0 0 0 0 0 0 0 0 0 0 0 0 0 0 0.25 0"/>
<feBlend mode="normal" in2="BackgroundImageFix" result="effect1_dropShadow_2710_5173"/>
<feBlend mode="normal" in="SourceGraphic" in2="effect1_dropShadow_2710_5173" result="shape"/>
</filter>
</defs>
</svg>
