<svg width="56" height="57" viewBox="0 0 56 57" fill="none" xmlns="http://www.w3.org/2000/svg">
<g filter="url(#filter0_d_2710_4138)">
<path fill-rule="evenodd" clip-rule="evenodd" d="M33.9972 43.1726C43.2327 40.5618 50 32.0712 50 22C50 9.84974 40.1503 0 28 0C15.8497 0 6 9.84974 6 22C6 32.0712 12.7673 40.5618 22.0028 43.1726L27.6516 48.6614C27.8456 48.85 28.1544 48.85 28.3484 48.6614L33.9972 43.1726Z" fill="white"/>
</g>
<g clip-path="url(#clip0_2710_4138)">
<circle cx="28" cy="22.11" r="18" fill="white"/>
<path fill-rule="evenodd" clip-rule="evenodd" d="M39.0693 19.8496C40.8591 19.8496 41.6386 20.4954 41.6386 22.3851C41.6386 24.2087 40.959 24.8216 39.2514 24.8216H37.661V19.8496H39.0693ZM37.661 14.11H35.3568V26.6941H39.799C42.5006 26.6941 44 25.0041 44 22.2195C44 21.0594 43.6851 20.0979 43.0553 19.3029C42.2258 18.2583 41.2238 17.9603 39.6493 17.9603H37.661V14.11ZM12.4936 24.8713V26.694H18.0992C19.4747 26.694 20.4855 25.601 20.4855 23.9595C20.4855 22.2864 19.4747 21.3574 17.552 21.3574H15.4638C14.7176 21.3574 14.3699 21.1251 14.3699 20.5792C14.3699 19.8496 14.917 19.783 15.9612 19.783H19.6939V17.9602H15.0827C12.9775 17.9602 12 18.8223 12 20.6947C12 22.7337 12.8949 23.1645 15.0161 23.1645H17.0049C17.834 23.1645 18.248 23.4124 18.248 24.0261C18.248 24.639 17.834 24.8713 17.0049 24.8713H12.4936ZM34.1453 17.9666L34.1479 18.0113C34.15 18.0294 34.2655 19.8563 33.602 21.9206C32.5271 25.4298 31.3476 26.6093 31.3012 26.6346H28.7282C28.7282 26.6346 27.6672 22.1996 27.5808 21.838L26.4338 26.6346L23.8266 26.6207L23.8264 26.6205C23.8068 26.6003 22.6044 25.3572 21.5343 21.8603C20.8766 19.8159 21.01 18.0635 21.014 18.0115L21.0141 18.0104L21.0179 17.9666H23.3452C23.3452 17.9666 23.3443 18.0315 23.3443 18.058C23.3443 18.4905 23.405 22.1153 25.1367 24.3823C25.1898 24.1821 26.634 18.7641 26.634 18.7641H28.5406C28.5406 18.7641 29.9485 24.0025 30.0021 24.2011C31.781 21.8772 31.8214 18.2819 31.8214 18.029C31.8214 18.021 31.8202 17.9666 31.8202 17.9666H34.1453Z" fill="#DF252B"/>
</g>
<defs>
<filter id="filter0_d_2710_4138" x="2" y="0" width="52" height="56.8029" filterUnits="userSpaceOnUse" color-interpolation-filters="sRGB">
<feFlood flood-opacity="0" result="BackgroundImageFix"/>
<feColorMatrix in="SourceAlpha" type="matrix" values="0 0 0 0 0 0 0 0 0 0 0 0 0 0 0 0 0 0 127 0" result="hardAlpha"/>
<feOffset dy="4"/>
<feGaussianBlur stdDeviation="2"/>
<feComposite in2="hardAlpha" operator="out"/>
<feColorMatrix type="matrix" values="0 0 0 0 0 0 0 0 0 0 0 0 0 0 0 0 0 0 0.25 0"/>
<feBlend mode="normal" in2="BackgroundImageFix" result="effect1_dropShadow_2710_4138"/>
<feBlend mode="normal" in="SourceGraphic" in2="effect1_dropShadow_2710_4138" result="shape"/>
</filter>
<clipPath id="clip0_2710_4138">
<rect x="10" y="4.10999" width="36" height="36" rx="18" fill="white"/>
</clipPath>
</defs>
</svg>
