<svg width="56" height="57" viewBox="0 0 56 57" fill="none" xmlns="http://www.w3.org/2000/svg">
<g filter="url(#filter0_d_2710_4030)">
<path fill-rule="evenodd" clip-rule="evenodd" d="M33.9972 43.1726C43.2327 40.5618 50 32.0712 50 22C50 9.84974 40.1503 0 28 0C15.8497 0 6 9.84974 6 22C6 32.0712 12.7673 40.5618 22.0028 43.1726L27.6516 48.6614C27.8456 48.85 28.1544 48.85 28.3484 48.6614L33.9972 43.1726Z" fill="white"/>
</g>
<circle cx="28" cy="22.11" r="18" fill="white"/>
<path fill-rule="evenodd" clip-rule="evenodd" d="M23.0265 10.11L16 17.1385V27.0815L23.0265 34.11H32.9665L40 27.0815V17.1385L32.9665 10.11H23.0265Z" fill="white"/>
<path fill-rule="evenodd" clip-rule="evenodd" d="M23.1112 10.3005L16.1976 17.2161L16.4375 17.322L23.21 10.5475H32.7903L39.5628 17.3149V17.322V26.898L39.8097 27.0038V17.2161L32.889 10.3005H23.1112ZM39.5628 26.898L36.1765 30.2852L32.7903 33.6724H23.21L16.4375 26.898L16.1976 27.0038L23.1112 33.9194H32.889L36.3458 30.4616L39.8097 27.0038L39.5628 26.898Z" fill="#8F989A"/>
<path fill-rule="evenodd" clip-rule="evenodd" d="M32.9646 17.1437L30.9083 15.0868H28.0004H25.0921L23.0355 17.1437L20.9792 19.2006V22.11V25.0188L23.0355 27.0754L25.0921 29.1326H27.9998H30.9083L32.9646 27.0754L35.0218 25.0188V22.11V19.2006L32.9646 17.1437Z" fill="url(#paint0_radial_2710_4030)"/>
<path fill-rule="evenodd" clip-rule="evenodd" d="M28.0734 25.6812H27.8459V26.0628H28.0734V25.6812ZM27.4904 26.0628H27.7184V25.6812H27.4904V26.0628ZM30.3007 27.3539C30.2759 27.4626 30.2443 27.5419 30.207 27.5921C30.1695 27.6424 30.1212 27.6796 30.0625 27.7045C30.0035 27.7293 29.9085 27.7417 29.7772 27.7417H29.4708V26.0969H29.6559C29.8196 26.0969 29.9299 26.1043 29.9872 26.119C30.0634 26.1379 30.1283 26.1785 30.1819 26.2389C30.2352 26.2999 30.2742 26.3837 30.2996 26.4896C30.325 26.5963 30.3371 26.7408 30.3371 26.9254C30.3371 27.1027 30.325 27.2452 30.3007 27.3539ZM30.501 25.9575C30.4198 25.8573 30.3314 25.7862 30.2352 25.7441C30.139 25.7018 29.9971 25.6803 29.8077 25.6803H29.0613V28.1584H29.8303C29.9951 28.1584 30.1305 28.1347 30.2352 28.0884C30.3405 28.0418 30.4305 27.9715 30.5041 27.8795C30.5784 27.7872 30.6393 27.6619 30.6881 27.5032C30.7364 27.3451 30.7604 27.1588 30.7604 26.9449C30.7604 26.7069 30.7375 26.5082 30.6912 26.3482C30.6452 26.1881 30.5818 26.0577 30.501 25.9575ZM28.2455 27.049C28.2455 27.2949 28.2331 27.4555 28.208 27.5303C28.182 27.6057 28.1349 27.6641 28.0658 27.7062C27.9966 27.7482 27.9075 27.7688 27.7977 27.7688C27.6685 27.7688 27.5643 27.7395 27.4856 27.6802C27.4063 27.6209 27.3564 27.5365 27.3352 27.4278C27.3242 27.3638 27.318 27.2283 27.318 27.02V25.6803H26.8467V27.0019C26.8467 27.3728 26.8778 27.6268 26.9399 27.7652C27.0014 27.9032 27.101 28.0099 27.2381 28.0855C27.3753 28.1612 27.566 28.199 27.8101 28.199C28.0452 28.199 28.2348 28.1536 28.3784 28.0624C28.5218 27.9709 28.6146 27.851 28.655 27.7031C28.6962 27.5543 28.7168 27.3138 28.7168 26.981V25.6803H28.2455V27.049ZM26.2973 26.8054C26.2053 26.7397 26.0569 26.6762 25.8509 26.6158C25.6567 26.559 25.5323 26.5082 25.4795 26.4619C25.4265 26.4168 25.3994 26.3606 25.3994 26.294C25.3994 26.2265 25.4299 26.1698 25.4891 26.1246C25.5489 26.0786 25.6336 26.0557 25.7445 26.0557C25.8548 26.0557 25.9395 26.082 25.9996 26.1345C26.0589 26.187 26.0978 26.279 26.1161 26.4105L26.5259 26.3902C26.5177 26.1494 26.4463 25.9637 26.3125 25.8339C26.1777 25.7043 25.9914 25.6397 25.7521 25.6397C25.593 25.6397 25.4592 25.6673 25.3508 25.7224C25.2428 25.7774 25.1573 25.859 25.0963 25.9671C25.0345 26.0752 25.0038 26.1969 25.0038 26.3318C25.0038 26.4481 25.0278 26.5562 25.0757 26.657C25.1234 26.7577 25.188 26.8393 25.269 26.9008C25.3503 26.9629 25.4784 27.0211 25.6528 27.0733C25.8472 27.1334 25.9705 27.1752 26.0208 27.2001C26.0713 27.2252 26.1088 27.2568 26.1336 27.296C26.1585 27.335 26.1709 27.3821 26.1709 27.4372C26.1709 27.5309 26.1353 27.6096 26.0645 27.6737C25.9937 27.7378 25.8963 27.7688 25.7727 27.7688C25.5235 27.7688 25.376 27.6147 25.3311 27.3051L24.936 27.3528C24.9916 27.9167 25.2676 28.199 25.764 28.199C26.0445 28.199 26.2508 28.1262 26.3828 27.9803C26.5146 27.834 26.5803 27.6534 26.5803 27.4389C26.5803 27.2907 26.5561 27.1642 26.5072 27.0598C26.4593 26.9559 26.389 26.8712 26.2973 26.8054ZM21.7264 24.5826H33.9536V24.298H21.7264V24.5826ZM28.1945 18.892H27.5903V19.8616H28.1945V18.892ZM23.1763 23.7129H24.1781V19.6792H25.4039V22.1231C25.4454 23.307 26.2979 23.8289 27.474 23.8289C28.6496 23.8289 29.5027 23.307 29.536 22.1231V19.5626L31.0846 23.7129H32.1357L33.9494 18.892H32.8895L31.6227 22.6693L30.3718 18.892H28.5421V22.0895C28.4676 22.7357 28.1448 22.9677 27.474 23.0092C26.8038 22.9677 26.4726 22.7357 26.4054 22.0895V18.892H21.7854V19.6792H23.1763V23.7129ZM27.3417 18.892H26.7618V19.8616H27.3417V18.892Z" fill="white"/>
<path fill-rule="evenodd" clip-rule="evenodd" d="M28.2264 25.8339H27.9986V26.2155H28.2264V25.8339ZM27.6434 26.2155H27.8714V25.8339H27.6434V26.2155ZM30.4537 27.5066C30.4288 27.6153 30.3972 27.6946 30.36 27.7451C30.3224 27.7954 30.2742 27.8326 30.2155 27.8572C30.1565 27.882 30.0614 27.8947 29.9299 27.8947H29.6238V26.2497H29.8089C29.9725 26.2497 30.0829 26.2573 30.1402 26.2717C30.2163 26.2909 30.281 26.3312 30.3349 26.3919C30.3882 26.4532 30.4271 26.5367 30.4525 26.6429C30.4776 26.7493 30.4901 26.8938 30.4901 27.0784C30.4901 27.2554 30.4777 27.3979 30.4537 27.5066ZM30.6537 26.1102C30.5728 26.0103 30.4844 25.9389 30.3882 25.8968C30.292 25.8548 30.1497 25.833 29.9607 25.833H29.2143V28.3116H29.983C30.1478 28.3116 30.2832 28.2876 30.3882 28.2411C30.4935 28.1948 30.5832 28.1245 30.6571 28.0325C30.7313 27.9399 30.7923 27.8148 30.8411 27.6565C30.8894 27.4981 30.9131 27.3116 30.9131 27.0976C30.9131 26.8599 30.8905 26.6609 30.8442 26.5012C30.7982 26.3411 30.7347 26.2107 30.6537 26.1102ZM28.3985 27.2018C28.3985 27.4476 28.3861 27.6085 28.361 27.6836C28.335 27.7587 28.2879 27.8171 28.2188 27.8589C28.1493 27.9015 28.0604 27.9218 27.9507 27.9218C27.8214 27.9218 27.717 27.8925 27.6383 27.8329C27.559 27.7736 27.5093 27.6895 27.4884 27.5808C27.4769 27.517 27.4707 27.3816 27.4707 27.1727V25.833H26.9997V27.1549C26.9997 27.5258 27.0307 27.7796 27.0925 27.9179C27.1543 28.0559 27.2537 28.1626 27.3908 28.2382C27.528 28.3142 27.7187 28.3517 27.9631 28.3517C28.1981 28.3517 28.3878 28.3066 28.5314 28.2151C28.6745 28.1239 28.7676 28.004 28.808 27.8558C28.8492 27.7073 28.8695 27.4668 28.8695 27.134V25.833H28.3985V27.2018ZM26.45 26.9581C26.3586 26.8927 26.2096 26.8292 26.0038 26.7685C25.8097 26.7117 25.685 26.6609 25.6322 26.6152C25.5792 26.5697 25.5521 26.5136 25.5521 26.447C25.5521 26.3792 25.5826 26.3228 25.6421 26.2773C25.7022 26.2316 25.7866 26.2087 25.8975 26.2087C26.0078 26.2087 26.0925 26.2353 26.1523 26.2878C26.2118 26.34 26.2508 26.432 26.2691 26.5635L26.6788 26.5429C26.6704 26.3022 26.5993 26.1167 26.4655 25.9871C26.3309 25.8573 26.1444 25.7927 25.9048 25.7927C25.7457 25.7927 25.6122 25.8203 25.5038 25.8754C25.3957 25.9304 25.3102 26.012 25.249 26.1201C25.1875 26.2282 25.1567 26.3499 25.1567 26.4848C25.1567 26.6008 25.1807 26.7089 25.2287 26.81C25.2761 26.9107 25.341 26.9923 25.422 27.0541C25.5032 27.1159 25.6311 27.1738 25.8058 27.226C26.0002 27.2861 26.1232 27.3285 26.1737 27.3533C26.2242 27.3782 26.2615 27.4101 26.2863 27.4487C26.3114 27.488 26.3238 27.5348 26.3238 27.5899C26.3238 27.6839 26.288 27.7629 26.2175 27.8267C26.1466 27.8905 26.0493 27.9218 25.9257 27.9218C25.6765 27.9218 25.5289 27.7677 25.4841 27.4581L25.0887 27.5055C25.1443 28.0697 25.4206 28.3517 25.9169 28.3517C26.1974 28.3517 26.4037 28.2792 26.5355 28.133C26.6676 27.987 26.7333 27.8061 26.7333 27.5916C26.7333 27.4437 26.709 27.3169 26.6602 27.2128C26.6122 27.1092 26.542 27.0242 26.45 26.9581ZM21.8794 24.7355H34.1066V24.4507H21.8794V24.7355ZM28.3471 19.0447H27.743V20.0146H28.3471V19.0447ZM23.3293 23.8659H24.3308V19.8322H25.5569V22.2758C25.5984 23.46 26.4508 23.9819 27.627 23.9819C28.8026 23.9819 29.6556 23.46 29.6887 22.2758V19.7156L31.2376 23.8659H32.2887L34.1024 19.0447H33.0425L31.7757 22.8223L30.5248 19.0447H28.6951V22.2422C28.6203 22.8886 28.2975 23.1204 27.627 23.1622C26.9565 23.1204 26.6252 22.8886 26.5586 22.2422V19.0447H21.9384V19.8322H23.3293V23.8659ZM27.4947 19.0447H26.9148V20.0146H27.4947V19.0447Z" fill="#231F20"/>
<path fill-rule="evenodd" clip-rule="evenodd" d="M35.6346 25.2688L33.3976 27.5024L31.1619 29.7362H24.8378L22.6023 27.5024L20.366 25.2688V18.951L22.6023 16.7174L24.8378 14.4835H31.1619L33.3976 16.7174L35.6346 18.951V25.2688ZM36.0372 14.0578L32.708 10.7225H23.2919L19.9627 14.0578L16.6332 17.3929V26.8263L19.9627 30.1616L23.2919 33.4972H32.708L36.0372 30.1616L39.3673 26.8263V17.3929L36.0372 14.0578Z" fill="#163D7D"/>
<path fill-rule="evenodd" clip-rule="evenodd" d="M31.1622 29.7366H24.8381L22.6024 27.5027L20.366 25.2688V18.9513L22.6024 16.7177L24.8381 14.4839H31.1622L31.2243 14.546C30.3631 13.0928 29.2614 11.8 27.9738 10.7229H23.292L19.9631 14.0582L16.6335 17.3932V26.827L19.9631 30.1617L23.292 33.4976H27.9738C29.2614 32.4204 30.3628 31.1276 31.2243 29.6745L31.1622 29.7366Z" fill="url(#paint1_radial_2710_4030)"/>
<path fill-rule="evenodd" clip-rule="evenodd" d="M31.1766 14.4985L33.398 16.718L35.6349 18.9516V25.2691L33.398 27.503L31.1766 29.7225C31.9295 30.7285 32.8286 31.6185 33.841 32.3625L36.0373 30.1623L39.3677 26.827V17.3935L36.0373 14.0585L33.841 11.8582C32.8286 12.6022 31.9295 13.4925 31.1766 14.4985Z" fill="url(#paint2_radial_2710_4030)"/>
<path fill-rule="evenodd" clip-rule="evenodd" d="M23.0265 10.11L16 17.1385V27.0815L23.0265 34.11H32.9665L36.4868 30.5957L40 27.0815V17.1385L32.9665 10.11H23.0265ZM23.1111 10.3005H32.8889L39.8095 17.2161V27.0038L36.3457 30.4616L32.8889 33.9195H23.1111L16.1975 27.0038V17.2161L23.1111 10.3005Z" fill="#231F20"/>
<path fill-rule="evenodd" clip-rule="evenodd" d="M25.0181 29.3102L20.8008 25.092V19.1262L25.0181 14.908L25.0996 15.1053L20.998 19.2078V25.0101L25.0996 29.1132L25.0181 29.3102Z" fill="#231F20"/>
<path fill-rule="evenodd" clip-rule="evenodd" d="M23.2099 10.5476L16.4374 17.3221V26.8981L23.2099 33.6726L23.2945 33.4821L16.6349 26.8205V17.3997L23.2945 10.7381L23.2099 10.5476Z" fill="#231F20"/>
<path fill-rule="evenodd" clip-rule="evenodd" d="M24.8395 14.4711L24.9171 14.6687H31.0829L35.4427 19.0297V25.1902L31.0829 29.5513H24.9171L24.8395 29.7489H31.1605L35.6331 25.2749V18.945L31.1605 14.4711H24.8395Z" fill="#231F20"/>
<path fill-rule="evenodd" clip-rule="evenodd" d="M24.9172 14.6687L22.7373 16.8492L20.5574 19.0298V25.1903L22.7373 27.3708L24.9172 29.5514H31.0829L33.2628 27.3708L35.4427 25.1903V19.0298V19.0227H35.4357L33.2628 16.8492L31.0829 14.6687H24.9172ZM25.0159 14.9086H30.9842L33.0935 17.0186L35.2029 19.1286V25.0915L33.0935 27.2015L30.9842 29.3114H25.0159L22.9066 27.2015L20.8043 25.0915V19.1286L22.9066 17.0186L25.0159 14.9086Z" fill="#8F989A"/>
<path fill-rule="evenodd" clip-rule="evenodd" d="M20.5596 25.1912L20.8009 25.0915V19.1257L20.5596 19.0258V25.1912Z" fill="url(#paint3_linear_2710_4030)"/>
<path fill-rule="evenodd" clip-rule="evenodd" d="M36.1764 13.9348L39.5627 17.315V17.3221V18.3171L39.8096 18.4159V17.2162L36.3457 13.7584L36.1764 13.9348Z" fill="#4C758C"/>
<path fill-rule="evenodd" clip-rule="evenodd" d="M32.7887 10.5448L36.1744 13.9317L39.562 17.319L39.8061 17.2176L36.3471 13.7593L32.8894 10.3009L32.7887 10.5448Z" fill="url(#paint4_linear_2710_4030)"/>
<path fill-rule="evenodd" clip-rule="evenodd" d="M16.4386 17.3225L23.2111 10.5448L23.1098 10.3009L16.1942 17.2176L16.4386 17.3225Z" fill="url(#paint5_linear_2710_4030)"/>
<path fill-rule="evenodd" clip-rule="evenodd" d="M33.0935 17.0186L35.2034 19.1286V19.672L35.4434 19.7707V19.0227L33.2629 16.8492L33.0935 17.0186Z" fill="#4E6374"/>
<path fill-rule="evenodd" clip-rule="evenodd" d="M30.9822 14.908L33.0904 17.0174L35.1997 19.1262L35.441 19.0263L33.2611 16.8466L31.0818 14.6669L30.9822 14.908Z" fill="url(#paint6_linear_2710_4030)"/>
<path fill-rule="evenodd" clip-rule="evenodd" d="M24.9177 14.6687L22.7372 16.8492L22.9065 17.0186L25.0165 14.9086H26.0186L26.1173 14.6687H24.9177Z" fill="#566168"/>
<path fill-rule="evenodd" clip-rule="evenodd" d="M20.8008 19.1262L22.9096 17.0174L25.0182 14.908L24.918 14.6669L22.7392 16.8466L20.5596 19.0263L20.8008 19.1262Z" fill="url(#paint7_linear_2710_4030)"/>
<path fill-rule="evenodd" clip-rule="evenodd" d="M33.0942 27.2015L30.9843 29.3115H30.4338V29.5515H31.083L33.2635 27.3709L33.0942 27.2015Z" fill="#375A70"/>
<path fill-rule="evenodd" clip-rule="evenodd" d="M35.1997 25.092L33.0904 27.2008L30.9822 29.3105L31.0818 29.5519L33.2611 27.3716L35.441 25.1919L35.1997 25.092Z" fill="url(#paint8_linear_2710_4030)"/>
<path fill-rule="evenodd" clip-rule="evenodd" d="M20.5574 24.4423V25.1903L22.7379 27.3709L22.9073 27.2015L20.8043 25.0915V24.5481L20.5574 24.4423Z" fill="#D6F0F5"/>
<path fill-rule="evenodd" clip-rule="evenodd" d="M25.0182 29.3105L22.9096 27.2008L20.8008 25.092L20.5596 25.1919L22.7392 27.3716L24.918 29.5519L25.0182 29.3105Z" fill="url(#paint9_linear_2710_4030)"/>
<path fill-rule="evenodd" clip-rule="evenodd" d="M23.2111 33.6739L19.8248 30.2864L16.4386 26.8977L16.1951 27.0005L19.6521 30.4589L23.1098 33.9181L23.2111 33.6739Z" fill="url(#paint10_linear_2710_4030)"/>
<path fill-rule="evenodd" clip-rule="evenodd" d="M39.5621 26.8992L36.1744 30.2861L32.7887 33.6737L32.8895 33.9178L36.3471 30.4586L39.8062 27.0002L39.5621 26.8992Z" fill="#8F989A"/>
<path fill-rule="evenodd" clip-rule="evenodd" d="M23.211 10.5444H32.7888L32.8895 10.3003H23.1097L23.211 10.5444Z" fill="url(#paint11_linear_2710_4030)"/>
<path fill-rule="evenodd" clip-rule="evenodd" d="M31.0818 14.6667H24.918L25.0181 14.9077H30.9822L31.0818 14.6667Z" fill="url(#paint12_linear_2710_4030)"/>
<path fill-rule="evenodd" clip-rule="evenodd" d="M23.1097 33.9178H32.8895L32.7888 33.6736H23.211L23.1097 33.9178Z" fill="url(#paint13_linear_2710_4030)"/>
<path fill-rule="evenodd" clip-rule="evenodd" d="M39.8063 26.9999V17.2172L39.5621 17.3183V26.8991L39.8063 26.9999Z" fill="url(#paint14_linear_2710_4030)"/>
<path fill-rule="evenodd" clip-rule="evenodd" d="M35.4411 25.1918V19.0259L35.1997 19.1261V25.0918L35.4411 25.1918Z" fill="url(#paint15_linear_2710_4030)"/>
<path fill-rule="evenodd" clip-rule="evenodd" d="M24.918 29.5514H31.0818L30.9822 29.3101H25.0181L24.918 29.5514Z" fill="url(#paint16_linear_2710_4030)"/>
<defs>
<filter id="filter0_d_2710_4030" x="2" y="0" width="52" height="56.8029" filterUnits="userSpaceOnUse" color-interpolation-filters="sRGB">
<feFlood flood-opacity="0" result="BackgroundImageFix"/>
<feColorMatrix in="SourceAlpha" type="matrix" values="0 0 0 0 0 0 0 0 0 0 0 0 0 0 0 0 0 0 127 0" result="hardAlpha"/>
<feOffset dy="4"/>
<feGaussianBlur stdDeviation="2"/>
<feComposite in2="hardAlpha" operator="out"/>
<feColorMatrix type="matrix" values="0 0 0 0 0 0 0 0 0 0 0 0 0 0 0 0 0 0 0.25 0"/>
<feBlend mode="normal" in2="BackgroundImageFix" result="effect1_dropShadow_2710_4030"/>
<feBlend mode="normal" in="SourceGraphic" in2="effect1_dropShadow_2710_4030" result="shape"/>
</filter>
<radialGradient id="paint0_radial_2710_4030" cx="0" cy="0" r="1" gradientUnits="userSpaceOnUse" gradientTransform="translate(23.3077 22.1097) scale(11.706 11.7094)">
<stop stop-color="white"/>
<stop offset="1" stop-color="#C8C7C8"/>
</radialGradient>
<radialGradient id="paint1_radial_2710_4030" cx="0" cy="0" r="1" gradientUnits="userSpaceOnUse" gradientTransform="translate(18.5093 22.0642) scale(14.6408 14.6451)">
<stop stop-color="#59CAF5"/>
<stop offset="0.404494" stop-color="#1966B8"/>
<stop offset="1" stop-color="#163D7D"/>
</radialGradient>
<radialGradient id="paint2_radial_2710_4030" cx="0" cy="0" r="1" gradientUnits="userSpaceOnUse" gradientTransform="translate(41.3625 22.1104) scale(12.5646 12.5683)">
<stop stop-color="#59CAF5"/>
<stop offset="0.533708" stop-color="#194A92"/>
<stop offset="1" stop-color="#163D7D"/>
</radialGradient>
<linearGradient id="paint3_linear_2710_4030" x1="20.6802" y1="19.1125" x2="20.6802" y2="25.0401" gradientUnits="userSpaceOnUse">
<stop stop-color="#B1BDCB"/>
<stop offset="0.494382" stop-color="white"/>
<stop offset="0.97191" stop-color="#D6F0F5"/>
<stop offset="1" stop-color="#D6F0F5"/>
</linearGradient>
<linearGradient id="paint4_linear_2710_4030" x1="32.911" y1="10.494" x2="39.5327" y2="17.1137" gradientUnits="userSpaceOnUse">
<stop stop-color="#838F9B"/>
<stop offset="0.202247" stop-color="#6C889E"/>
<stop offset="0.297753" stop-color="#86949E"/>
<stop offset="0.382022" stop-color="#53799E"/>
<stop offset="0.679775" stop-color="#61737B"/>
<stop offset="0.966292" stop-color="#4C758C"/>
<stop offset="1" stop-color="#4C758C"/>
</linearGradient>
<linearGradient id="paint5_linear_2710_4030" x1="16.3771" y1="17.2083" x2="23.1127" y2="10.4747" gradientUnits="userSpaceOnUse">
<stop stop-color="#E6F7FE"/>
<stop offset="0.202247" stop-color="#EDEEF1"/>
<stop offset="0.337079" stop-color="#748A9A"/>
<stop offset="0.578652" stop-color="#D1D3D3"/>
<stop offset="0.977528" stop-color="#7C95A6"/>
<stop offset="1" stop-color="#7C95A6"/>
</linearGradient>
<linearGradient id="paint6_linear_2710_4030" x1="31.0836" y1="14.8388" x2="35.2354" y2="18.9894" gradientUnits="userSpaceOnUse">
<stop stop-color="#8F969A"/>
<stop offset="0.752809" stop-color="#707D88"/>
<stop offset="1" stop-color="#4E6374"/>
</linearGradient>
<linearGradient id="paint7_linear_2710_4030" x1="20.7652" y1="18.9919" x2="24.764" y2="14.9943" gradientUnits="userSpaceOnUse">
<stop stop-color="#B1BDCB"/>
<stop offset="0.235955" stop-color="#BAC8DE"/>
<stop offset="0.44382" stop-color="#6D95BC"/>
<stop offset="0.724719" stop-color="#849DB5"/>
<stop offset="0.977528" stop-color="#546067"/>
<stop offset="1" stop-color="#546067"/>
</linearGradient>
<linearGradient id="paint8_linear_2710_4030" x1="30.9821" y1="27.3219" x2="35.4411" y2="27.3219" gradientUnits="userSpaceOnUse">
<stop stop-color="#35596F"/>
<stop offset="0.269663" stop-color="#889297"/>
<stop offset="1" stop-color="#8F989A"/>
</linearGradient>
<linearGradient id="paint9_linear_2710_4030" x1="20.5596" y1="27.3219" x2="25.0181" y2="27.3219" gradientUnits="userSpaceOnUse">
<stop stop-color="#D6F0F5"/>
<stop offset="0.331461" stop-color="#90BCE8"/>
<stop offset="0.494382" stop-color="#638BA9"/>
<stop offset="0.747191" stop-color="#B3BFC4"/>
<stop offset="0.955056" stop-color="#A9B2B6"/>
<stop offset="1" stop-color="#A9B2B6"/>
</linearGradient>
<linearGradient id="paint10_linear_2710_4030" x1="16.3884" y1="27.0218" x2="23.0218" y2="33.6533" gradientUnits="userSpaceOnUse">
<stop stop-color="white"/>
<stop offset="0.410112" stop-color="#5E829C"/>
<stop offset="0.589888" stop-color="#7D9EBB"/>
<stop offset="0.719101" stop-color="#83A4C1"/>
<stop offset="0.955056" stop-color="#A2A8AA"/>
<stop offset="1" stop-color="#A2A8AA"/>
</linearGradient>
<linearGradient id="paint11_linear_2710_4030" x1="23.1098" y1="10.4224" x2="32.8896" y2="10.4224" gradientUnits="userSpaceOnUse">
<stop stop-color="#7C95A6"/>
<stop offset="0.174157" stop-color="#475F6E"/>
<stop offset="1" stop-color="#85929E"/>
</linearGradient>
<linearGradient id="paint12_linear_2710_4030" x1="24.9181" y1="14.7872" x2="31.0818" y2="14.7872" gradientUnits="userSpaceOnUse">
<stop stop-color="#546067"/>
<stop offset="0.196629" stop-color="#99A1A5"/>
<stop offset="1" stop-color="#8F969A"/>
</linearGradient>
<linearGradient id="paint13_linear_2710_4030" x1="23.1098" y1="33.7957" x2="32.8896" y2="33.7957" gradientUnits="userSpaceOnUse">
<stop stop-color="#A2A8AA"/>
<stop offset="0.820225" stop-color="#36586D"/>
<stop offset="1" stop-color="#8F989A"/>
</linearGradient>
<linearGradient id="paint14_linear_2710_4030" x1="39.6842" y1="17.3011" x2="39.6842" y2="26.8983" gradientUnits="userSpaceOnUse">
<stop stop-color="#4C758C"/>
<stop offset="0.432584" stop-color="#BAC1C2"/>
<stop offset="0.629214" stop-color="#B7BDBF"/>
<stop offset="1" stop-color="#8F989A"/>
</linearGradient>
<linearGradient id="paint15_linear_2710_4030" x1="35.3204" y1="19.1594" x2="35.3204" y2="24.9934" gradientUnits="userSpaceOnUse">
<stop stop-color="#4E6374"/>
<stop offset="0.466292" stop-color="#899295"/>
<stop offset="1" stop-color="#8F989A"/>
</linearGradient>
<linearGradient id="paint16_linear_2710_4030" x1="24.9181" y1="29.4308" x2="31.0818" y2="29.4308" gradientUnits="userSpaceOnUse">
<stop stop-color="#A9B2B6"/>
<stop offset="0.820225" stop-color="#798B99"/>
<stop offset="0.977528" stop-color="#35596F"/>
<stop offset="1" stop-color="#35596F"/>
</linearGradient>
</defs>
</svg>
