<svg width="56" height="57" viewBox="0 0 56 57" fill="none" xmlns="http://www.w3.org/2000/svg">
<g filter="url(#filter0_d_2710_4424)">
<path fill-rule="evenodd" clip-rule="evenodd" d="M33.9972 43.1726C43.2327 40.5618 50 32.0712 50 22C50 9.84974 40.1503 0 28 0C15.8497 0 6 9.84974 6 22C6 32.0712 12.7673 40.5618 22.0028 43.1726L27.6516 48.6614C27.8456 48.85 28.1544 48.85 28.3484 48.6614L33.9972 43.1726Z" fill="white"/>
</g>
<path d="M33.1996 23.5243C32.6604 23.5243 32.1456 23.6287 31.6696 23.811L30.2545 21.6178C30.4052 21.414 30.5513 21.2067 30.69 20.9915C32.4556 18.2543 32.9648 15.0693 32.3685 12.11L28.2464 18.5024L24.1244 12.11C23.5277 15.0694 24.0373 18.2541 25.8024 20.9915C25.9416 21.2067 26.0881 21.4141 26.2379 21.6178L24.8233 23.811C24.3469 23.6287 23.8328 23.5243 23.2929 23.5243C20.9258 23.5243 19 25.4499 19 27.8171C19 30.1841 20.9256 32.11 23.2929 32.11C25.6595 32.11 27.5857 30.1844 27.5857 27.8171C27.5857 26.7158 27.1654 25.7143 26.4815 24.9533C27.1008 24.6065 27.6909 24.2011 28.2463 23.7422C28.8021 24.2013 29.3918 24.6065 30.0114 24.9533C29.3275 25.7143 28.9072 26.716 28.9072 27.8171C28.9072 30.1841 30.8332 32.11 33.1996 32.11C35.5671 32.11 37.4929 30.1844 37.4929 27.8171C37.4929 25.4501 35.5673 23.5243 33.2 23.5243H33.1996ZM25.6575 27.8171C25.6575 29.121 24.5965 30.1819 23.293 30.1819C21.9888 30.1819 20.9282 29.121 20.9282 27.8171C20.9282 26.5133 21.9889 25.4523 23.293 25.4523C23.445 25.4523 23.5935 25.4681 23.7373 25.4959C24.0322 25.5523 24.3067 25.6641 24.5517 25.8192C25.2151 26.2383 25.6575 26.9764 25.6575 27.8171V27.8171ZM33.1996 30.1821C31.8961 30.1821 30.8356 29.1211 30.8356 27.8173C30.8356 26.9766 31.278 26.2385 31.9409 25.8192C32.1863 25.6643 32.4608 25.5524 32.7553 25.4959C32.8996 25.4682 33.0481 25.4523 33.1996 25.4523C34.5039 25.4523 35.5649 26.5133 35.5649 27.8171C35.5649 29.121 34.5037 30.1821 33.1996 30.1821V30.1821Z" fill="white"/>
<g clip-path="url(#clip0_2710_4424)">
<path d="M21.1074 21.355L20.1986 23.8394L19.2157 21.3155L19.191 21.2513L19.1663 21.192L19.1367 21.1377C18.9293 20.7278 18.6971 20.871 18.2477 20.8364H14L14.5384 22.0268H18.1143L19.5417 25.4545C19.8233 26.0571 20.5049 26.0769 20.7963 25.4743L20.821 25.4101L22.3076 21.7946L22.3175 21.7699C22.6682 20.8117 21.468 20.3623 21.1074 21.355Z" fill="#E30613"/>
<path d="M29.8595 21.5773V21.5279L29.8545 21.4834L29.8496 21.439L29.8446 21.3945L29.8348 21.355L29.8249 21.3155L29.815 21.276L29.8051 21.2365L29.7903 21.2019L29.7804 21.1673L29.7607 21.1328L29.7459 21.1031L29.7261 21.0735L29.7064 21.0439L29.6619 20.9895L29.6125 20.9451L29.5532 20.9056L29.494 20.871L29.4248 20.8463L29.3557 20.8315L29.2816 20.8216L29.2075 20.8167L29.1285 20.8216L29.0544 20.8315L28.9852 20.8463L28.9161 20.871L28.8568 20.9056L28.7975 20.9451L28.7482 20.9895L28.7037 21.0439L28.6839 21.0735L28.6642 21.1031L28.6494 21.1328L28.6346 21.1673L28.6197 21.2019L28.6049 21.2365L28.595 21.276L28.5852 21.3155L28.5753 21.355L28.5654 21.3945L28.5605 21.439L28.5555 21.4834L28.5506 21.5279V21.5773L28.5457 21.6267V21.6711V25.0248V25.0742L28.5506 25.1236V25.168L28.5555 25.2174L28.5605 25.2619L28.5654 25.3014L28.5753 25.3458L28.5852 25.3854L28.595 25.4199L28.6049 25.4594L28.6197 25.494L28.6346 25.5286L28.6494 25.5632L28.6642 25.5928L28.6839 25.6274L28.7037 25.6521L28.7482 25.7064L28.7975 25.7509L28.8568 25.7904L28.9161 25.82L28.9852 25.8447L29.0544 25.8645L29.1285 25.8743L29.2075 25.8793L29.2816 25.8743L29.3557 25.8645L29.4248 25.8447L29.494 25.82L29.5532 25.7904L29.6125 25.7509L29.6619 25.7064L29.7064 25.6521L29.7261 25.6224L29.7459 25.5928L29.7607 25.5632L29.7755 25.5286L29.7903 25.494L29.8051 25.4594L29.815 25.4249L29.8249 25.3854L29.8348 25.3458L29.8446 25.3014L29.8496 25.2619L29.8545 25.2174L29.8595 25.168V25.1236L29.8644 25.0742V25.0248V21.6711V21.6267L29.8595 21.5773Z" fill="#E30613"/>
<path d="M27.7703 23.2319L27.7653 23.1627L27.7604 23.0936L27.7555 23.0294L27.7505 22.9651L27.7406 22.9009L27.7308 22.8367L27.7209 22.7725L27.7061 22.7083L27.6912 22.649L27.6764 22.5898L27.6616 22.5305L27.6419 22.4712L27.6221 22.412L27.6023 22.3527L27.5826 22.2984L27.5579 22.244L27.5332 22.1897L27.5085 22.1354L27.4789 22.081L27.4492 22.0267L27.4196 21.9773L27.39 21.9279L27.3554 21.8785L27.3208 21.8291L27.2862 21.7798L27.2517 21.7304L27.2121 21.6859L27.1726 21.6415L27.1331 21.597L27.0887 21.5526L27.0442 21.5081L26.9998 21.4686L26.9553 21.4291L26.9109 21.3896L26.8664 21.35L26.817 21.3155L26.7676 21.2809L26.7182 21.2463L26.6688 21.2167L26.6195 21.1871L26.5651 21.1574L26.5108 21.1278L26.4565 21.1031L26.4021 21.0784L26.3478 21.0537L26.2885 21.0339L26.2293 21.0142L26.17 20.9944L26.1107 20.9747L26.0514 20.95L25.9922 20.9352L25.928 20.9203L25.8687 20.9055L25.8045 20.8956L25.7403 20.8858L25.6761 20.8759L25.6119 20.866L25.5477 20.8611L25.4785 20.8561L25.4143 20.8512H25.3452H25.276H25.2069H25.1377L25.0686 20.8561L25.0044 20.8611L24.9401 20.866L24.8759 20.8759L24.8117 20.8858L24.7525 20.8956L24.6882 20.9055L24.624 20.9203L24.5648 20.9352L24.5055 20.95L24.4462 20.9697L24.387 20.9895L24.3277 21.0092L24.2684 21.029L24.2141 21.0488L24.1598 21.0735L24.1054 21.0982L24.0511 21.1228L23.9968 21.1525L23.9424 21.1821L23.893 21.2118L23.8437 21.2463L23.7943 21.2809L23.7449 21.3155L23.6955 21.35L23.6461 21.3896L23.6016 21.4291L23.5572 21.4686L23.5127 21.5081L23.4683 21.5526L23.4288 21.597L23.3893 21.6415L23.3497 21.6859L23.3102 21.7304L23.2707 21.7798L23.2361 21.8291L23.2016 21.8785L23.1719 21.9279L23.1423 21.9773L23.1127 22.0267L23.083 22.081L23.0583 22.1354L23.0336 22.1897L23.0089 22.244L22.9842 22.2984L22.9595 22.3527L22.9398 22.412L22.92 22.4712L22.9003 22.5305L22.8805 22.5898L22.8657 22.649L22.8509 22.7133L22.8361 22.7775L22.8262 22.8417L22.8163 22.9059L22.8064 22.9701L22.7966 23.0343L22.7916 23.1034L22.7867 23.1726L22.7817 23.2417V23.3109V23.38V23.4492V23.5183L22.7867 23.5875L22.7916 23.6566L22.7966 23.7258L22.8064 23.79L22.8163 23.8542L22.8262 23.9184L22.8361 23.9826L22.8459 24.0468L22.8608 24.111L22.8756 24.1703L22.8904 24.2296L22.9102 24.2888L22.9299 24.3481L22.9497 24.4074L22.9744 24.4617L22.9941 24.516L23.0188 24.5704L23.0435 24.6247L23.0682 24.679L23.0978 24.7334L23.1275 24.7828L23.1571 24.8321L23.1917 24.8815L23.2263 24.9309L23.2608 24.9803L23.2954 25.0248L23.3349 25.0692L23.3744 25.1137L23.4139 25.1581L23.4584 25.2026L23.5029 25.247L23.5473 25.2865L23.5918 25.3261L23.6362 25.3656L23.6856 25.4051L23.735 25.4397L23.7844 25.4742L23.8338 25.5088L23.8832 25.5434L23.9326 25.573L23.9869 25.6026L24.0412 25.6323L24.0956 25.657L24.1499 25.6817L24.2042 25.7064L24.2635 25.7261L24.3228 25.7459L24.382 25.7656L24.4413 25.7854L24.5006 25.8052L24.5598 25.82L24.624 25.8348L24.6882 25.8496L24.7525 25.8595L24.8167 25.8694L24.8809 25.8792L24.9451 25.8891L25.0093 25.8941L25.0735 25.899L25.1426 25.8891H25.2118H25.2809H25.3501H25.4192L25.4884 25.8842L25.5526 25.8792L25.6168 25.8743L25.681 25.8644L25.7452 25.8545L25.8094 25.8447L25.8736 25.8348L25.9378 25.82L25.9971 25.8052L26.0564 25.7903L26.1157 25.7706L26.1749 25.7508L26.2342 25.7311L26.2935 25.7113L26.3527 25.6916L26.4071 25.6669L26.4614 25.6422L26.5157 25.6175L26.5701 25.5878L26.6244 25.5582L26.6787 25.5286L26.7281 25.494L26.7775 25.4594L26.8269 25.4248L26.8763 25.3903L26.9257 25.3557L26.9701 25.3162L27.0146 25.2767L27.059 25.2372L27.1035 25.1927L27.1479 25.1482L27.1875 25.1038L27.227 25.0593L27.2665 25.0149L27.3011 24.9655L27.3356 24.9161L27.3702 24.8667L27.4048 24.8173L27.4344 24.7679L27.464 24.7185L27.4937 24.6642L27.5233 24.6099L27.548 24.5556L27.5727 24.5012L27.5974 24.4469L27.6221 24.3926L27.6419 24.3333L27.6616 24.274L27.6814 24.2148L27.6962 24.1555L27.711 24.0962L27.7258 24.0369L27.7406 23.9727L27.7505 23.9085L27.7604 23.8443L27.7703 23.7801L27.7752 23.7159L27.7802 23.6467L27.7851 23.5776L27.79 23.5085V23.4393V23.3702V23.301L27.7703 23.2319ZM26.3873 23.464L26.3824 23.5381L26.3774 23.6122L26.3676 23.6813L26.3577 23.7505L26.3429 23.8147L26.328 23.8789L26.3083 23.9431L26.2885 24.0024L26.2688 24.0616L26.2441 24.116L26.2144 24.1703L26.1848 24.2246L26.1552 24.274L26.1206 24.3234L26.086 24.3679L26.0465 24.4123L26.007 24.4518L25.9625 24.4913L25.9181 24.5259L25.8736 24.5556L25.8292 24.5852L25.7798 24.6099L25.7304 24.6346L25.681 24.6543L25.6267 24.6741L25.5724 24.6889L25.518 24.7037L25.4588 24.7136L25.3995 24.7185L25.3402 24.7235H25.276H25.2118L25.1525 24.7185L25.0933 24.7136L25.034 24.7037L24.9747 24.6889L24.9204 24.6741L24.8661 24.6543L24.8167 24.6346L24.7673 24.6099L24.7179 24.5852L24.6734 24.5556L24.629 24.5259L24.5845 24.4913L24.545 24.4518L24.5055 24.4123L24.466 24.3679L24.4314 24.3234L24.3968 24.274L24.3623 24.2246L24.3326 24.1703L24.3079 24.116L24.2832 24.0616L24.2585 24.0024L24.2388 23.9431L24.219 23.8789L24.2042 23.8147L24.1894 23.7505L24.1795 23.6813L24.1696 23.6122L24.1598 23.5381L24.1548 23.464V23.385V23.3059L24.1598 23.2269L24.1696 23.1528L24.1795 23.0787L24.1894 23.0096L24.2042 22.9405L24.219 22.8713L24.2388 22.8071L24.2585 22.7429L24.2832 22.6836L24.3079 22.6243L24.3326 22.57L24.3623 22.5157L24.3919 22.4663L24.4265 22.4169L24.461 22.3724L24.5006 22.328L24.5401 22.2885L24.5796 22.249L24.6191 22.2144L24.6636 22.1848L24.708 22.1551L24.7525 22.1304L24.8018 22.1057L24.8512 22.086L24.9056 22.0662L24.9599 22.0514L25.0142 22.0366L25.0735 22.0267L25.1328 22.0218L25.197 22.0168H25.2612H25.3254L25.3896 22.0218L25.4489 22.0267L25.5081 22.0366L25.5625 22.0514L25.6168 22.0662L25.6711 22.086L25.7205 22.1057L25.7699 22.1304L25.8193 22.1551L25.8638 22.1848L25.9082 22.2144L25.9527 22.249L25.9922 22.2885L26.0317 22.328L26.0712 22.3724L26.1058 22.4169L26.1404 22.4663L26.17 22.5157L26.1996 22.57L26.2293 22.6243L26.254 22.6836L26.2787 22.7429L26.2984 22.8071L26.3182 22.8713L26.333 22.9405L26.3478 23.0096L26.3577 23.0787L26.3676 23.1528L26.3725 23.2269L26.3774 23.3059V23.385L26.3873 23.464Z" fill="#E30613"/>
<path d="M35.5197 23.4541L35.5148 23.4097L35.5098 23.3603L35.5049 23.3208L35.495 23.2763L35.4852 23.2368L35.4753 23.1973L35.4605 23.1578L35.4456 23.1232L35.4308 23.0886L35.4111 23.0541L35.3913 23.0244L35.3666 22.9948L35.3419 22.9652L35.3172 22.9405L35.2876 22.9158L35.258 22.8911L35.2283 22.8713L35.1937 22.8516L35.1542 22.8367L35.1197 22.8219L35.0801 22.8071L35.0406 22.7923L35.0011 22.7824L34.9567 22.7725L34.9122 22.7676L34.8628 22.7627L34.8184 22.7577L34.764 22.7528L34.7146 22.7478H34.6603H33.8404H33.7861L33.7416 22.7528H33.6922L33.6478 22.7577L33.5984 22.7627L33.5589 22.7676L33.5144 22.7725L33.4749 22.7824L33.4354 22.7923L33.3959 22.8022L33.3613 22.812L33.3267 22.8269L33.2922 22.8367L33.2625 22.8516L33.2329 22.8713L33.2033 22.8861L33.1489 22.9256L33.1045 22.9701L33.065 23.0244L33.0304 23.0788L33.0057 23.138L32.9859 23.2022L32.9761 23.2665L32.9711 23.3356L32.9761 23.4097L32.9859 23.4739L33.0057 23.5381L33.0304 23.5974L33.06 23.6517L33.0995 23.7011L33.1489 23.7455L33.2033 23.7851L33.2329 23.7999L33.2625 23.8196L33.2922 23.8295L33.3267 23.8443L33.3613 23.8591L33.3959 23.869L33.4354 23.8789L33.4749 23.8838L33.5144 23.8937L33.5539 23.8987L33.5984 23.9085H33.6429L33.6922 23.9135L33.7367 23.9184H33.7861H33.8404H34.1466V23.9332L34.1368 23.9826L34.1318 24.0271L34.122 24.0715L34.1121 24.116L34.0973 24.1555L34.0824 24.195L34.0676 24.2345L34.0479 24.274L34.0281 24.3086L34.0034 24.3432L33.9787 24.3778L33.954 24.4074L33.9244 24.437L33.8997 24.4667L33.8651 24.4963L33.8355 24.521L33.8009 24.5457L33.7663 24.5704L33.7318 24.5901L33.6922 24.6099L33.6527 24.6297L33.6132 24.6445L33.5737 24.6593L33.5293 24.6692L33.4848 24.679L33.4403 24.6889L33.391 24.6939L33.3416 24.6988L33.2922 24.7037H33.2428H33.1786L33.1144 24.6988L33.0502 24.6889L32.9909 24.679L32.9366 24.6642L32.8773 24.6494L32.8279 24.6297L32.7736 24.6099L32.7242 24.5852L32.6748 24.5556L32.6254 24.5259L32.5809 24.4914L32.5365 24.4568L32.492 24.4173L32.4525 24.3728L32.413 24.3284L32.3784 24.279L32.3439 24.2296L32.3093 24.1753L32.2747 24.1209L32.25 24.0666L32.2253 24.0073L32.2006 23.9481L32.1809 23.8838L32.1611 23.8147L32.1463 23.7505L32.1315 23.6764L32.1216 23.6072L32.1117 23.5282L32.1018 23.4541V23.3751V23.2911V23.2121V23.1331L32.1117 23.059L32.1216 22.9849L32.1315 22.9108L32.1463 22.8417L32.1611 22.7775L32.1809 22.7133L32.2006 22.654L32.2253 22.5947L32.25 22.5355L32.2747 22.4811L32.3043 22.4268L32.3389 22.3774L32.3735 22.328L32.413 22.2836L32.4525 22.2391L32.492 22.1996L32.5365 22.1601L32.5809 22.1255L32.6254 22.0959L32.6698 22.0662L32.7192 22.0366L32.7736 22.0168L32.823 21.9971L32.8773 21.9773L32.9366 21.9625L32.9958 21.9477L33.0551 21.9378L33.1193 21.9329L33.1835 21.9279H33.2477H33.2922H33.3366L33.386 21.9329L33.4305 21.9378L33.4749 21.9477L33.5243 21.9576L33.5688 21.9675L33.6182 21.9773L33.6675 21.9971L33.7169 22.0119L33.7663 22.0267L33.8157 22.0465L33.8651 22.0712L33.9145 22.0959L33.9688 22.1206L34.0232 22.1453L34.0726 22.1749L34.1121 22.1947L35.0554 21.4291L35.0209 21.3846L34.9814 21.3352L34.9418 21.2908L34.8925 21.2463L34.8431 21.2019L34.7887 21.1624L34.7295 21.1229L34.6702 21.0833L34.601 21.0438L34.5319 21.0043L34.4628 20.9697L34.3887 20.9352L34.3146 20.9055L34.2405 20.8808L34.1615 20.8512L34.0824 20.8315L33.9985 20.8068L33.9145 20.7919L33.8305 20.7771L33.7416 20.7623L33.6577 20.7524L33.5638 20.7425L33.4749 20.7376L33.3811 20.7327H33.2872H33.2131H33.144L33.0699 20.7376L33.0008 20.7425L32.9316 20.7475L32.8674 20.7574L32.7983 20.7672L32.7341 20.7771L32.6698 20.787L32.6056 20.8018L32.5414 20.8166L32.4772 20.8315L32.4179 20.8463L32.3587 20.866L32.2945 20.8858L32.2401 20.9055L32.1809 20.9302L32.1216 20.9549L32.0673 20.9796L32.0129 21.0043L31.9586 21.034L31.9043 21.0636L31.8549 21.0932L31.8006 21.1278L31.7512 21.1574L31.7018 21.1969L31.6524 21.2315L31.603 21.271L31.5585 21.3056L31.5091 21.3501L31.4647 21.3896L31.4202 21.434L31.3807 21.4785L31.3363 21.5229L31.2968 21.5674L31.2572 21.6168L31.2227 21.6662L31.1881 21.7106L31.1535 21.7649L31.119 21.8143L31.0844 21.8687L31.0547 21.9181L31.0251 21.9724L30.9955 22.0267L30.9708 22.0811L30.9461 22.1403L30.9214 22.1947L30.9016 22.2539L30.8769 22.3132L30.8572 22.3774L30.8424 22.4367L30.8226 22.4959L30.8078 22.5602L30.793 22.6244L30.7831 22.6886L30.7683 22.7528L30.7584 22.8219L30.7535 22.8911L30.7436 22.9553L30.7386 23.0244L30.7337 23.0936L30.7288 23.1677V23.2368V23.3109V23.38V23.4492L30.7337 23.5183L30.7386 23.5875L30.7436 23.6566L30.7485 23.7209L30.7584 23.79L30.7683 23.8542L30.7782 23.9184L30.793 23.9826L30.8078 24.0419L30.8226 24.1061L30.8374 24.1654L30.8572 24.2246L30.8769 24.2839L30.8967 24.3432L30.9164 24.4025L30.9411 24.4617L30.9658 24.5161L30.9905 24.5704L31.0202 24.6247L31.0449 24.679L31.0745 24.7334L31.1091 24.7877L31.1387 24.8371L31.1733 24.8865L31.2079 24.9359L31.2474 24.9853L31.2819 25.0347L31.3215 25.0841L31.361 25.1285L31.4054 25.173L31.4449 25.2174L31.4894 25.2619L31.5338 25.3014L31.5832 25.3409L31.6277 25.3804L31.6721 25.4199L31.7215 25.4545L31.7709 25.4891L31.8203 25.5236L31.8697 25.5533L31.9191 25.5829L31.9734 25.6125L32.0228 25.6422L32.0771 25.6669L32.1315 25.6916L32.1809 25.7163L32.2401 25.736L32.2945 25.7607L32.3537 25.7755L32.4081 25.7953L32.4673 25.8101L32.5266 25.8249L32.5859 25.8397L32.6451 25.8496L32.7044 25.8595L32.7686 25.8694L32.8328 25.8793L32.8921 25.8842L32.9563 25.8891L33.0205 25.8941H33.0897H33.1539H33.2181H33.2823L33.3465 25.8891L33.4107 25.8842L33.4749 25.8793L33.5342 25.8743L33.5935 25.8644L33.6577 25.8546L33.7169 25.8447L33.7762 25.8348L33.8305 25.82L33.8898 25.8052L33.9441 25.7904L34.0034 25.7706L34.0577 25.7558L34.1121 25.736L34.1615 25.7113L34.2158 25.6916L34.2701 25.6669L34.3195 25.6422L34.3689 25.6175L34.4183 25.5878L34.4677 25.5582L34.5171 25.5286L34.5615 25.4989L34.6109 25.4644L34.6554 25.4347L34.6998 25.4002L34.7443 25.3606L34.7838 25.3261L34.8282 25.2866L34.8678 25.2421L34.9073 25.2026L34.9468 25.1631L34.9863 25.1186L35.0209 25.0742L35.0604 25.0297L35.09 24.9853L35.1246 24.9408L35.1542 24.8914L35.1888 24.847L35.2135 24.7976L35.2431 24.7482L35.2678 24.6988L35.2925 24.6494L35.3172 24.6L35.3419 24.5457L35.3617 24.4914L35.3814 24.442L35.4012 24.3876L35.416 24.3333L35.4308 24.274L35.4456 24.2197L35.4605 24.1604L35.4703 24.1061L35.4852 24.0468L35.495 23.9876L35.5 23.9283L35.5098 23.8641L35.5148 23.8048L35.5197 23.7406V23.6813L35.5247 23.6171V23.5529V23.5035L35.5197 23.4541Z" fill="#E30613"/>
<path fill-rule="evenodd" clip-rule="evenodd" d="M41.9999 20.8364H41.9802H41.9258H41.8764H36.5718C35.4556 20.8463 35.4556 22.0169 36.5718 22.0268H36.9077V25.0199V25.0693V25.1187L36.9126 25.1681L36.9175 25.2125L36.9225 25.257L36.9274 25.3014L36.9324 25.3459L36.9422 25.3854L36.9521 25.4249L36.962 25.4644L36.9768 25.499L36.9916 25.5336L37.0064 25.5681L37.0262 25.5978L37.046 25.6274L37.0657 25.657L37.1102 25.7114L37.1596 25.7608L37.2188 25.8003L37.2781 25.8348L37.3423 25.8595L37.4115 25.8793L37.4855 25.8892L37.5646 25.8941L37.6436 25.8892L37.7177 25.8793L37.7868 25.8595L37.851 25.8348L37.9153 25.8003L37.9745 25.7608L38.0239 25.7114L38.0684 25.657L38.0881 25.6225L38.1079 25.5928L38.1276 25.5632L38.1425 25.5286L38.1573 25.494L38.1721 25.4595L38.182 25.42L38.1918 25.3804L38.2017 25.3409L38.2067 25.3014L38.2116 25.257L38.2165 25.2125L38.2215 25.1681L38.2264 25.1187V25.0693V25.0199V22.0268H41.4566L41.9999 20.8364Z" fill="#E30613"/>
<path d="M14.0642 18.3915H14.4001C14.6569 18.3915 14.8347 18.4754 14.8347 18.7026C14.8347 18.8755 14.7359 18.9595 14.5779 18.999V19.0039C14.7458 19.0187 14.8643 19.1274 14.8643 19.3003C14.8643 19.567 14.6421 19.6312 14.3902 19.6312H14.0642V18.3915ZM14.242 18.92H14.3408C14.5137 18.92 14.6569 18.9051 14.6569 18.7224C14.6569 18.5742 14.5285 18.5397 14.4297 18.5397H14.242V18.92ZM14.242 19.488H14.3754C14.5334 19.488 14.6816 19.4534 14.6816 19.2855C14.6816 19.0928 14.5137 19.0681 14.3606 19.0681H14.242V19.488Z" fill="#B2B2B2"/>
<path d="M15.9905 18.3915H16.1781L16.7017 19.6312H16.5041L16.3807 19.3201H15.7731L15.6447 19.6312H15.457L15.9905 18.3915ZM16.0794 18.5594L15.8324 19.1719H16.3263L16.0794 18.5594ZM15.8522 18.11H16.0201V18.2878H15.8522V18.11ZM16.1436 18.11H16.3115V18.2878H16.1436V18.11Z" fill="#B2B2B2"/>
<path d="M18.1736 18.594C18.0945 18.5496 18.0106 18.5249 17.9167 18.5249C17.6303 18.5249 17.4426 18.7323 17.4426 19.0089C17.4426 19.3003 17.655 19.493 17.9118 19.493C18.0007 19.493 18.1192 19.4683 18.1785 19.4337L18.1884 19.6065C18.0945 19.6461 17.976 19.651 17.9069 19.651C17.5167 19.651 17.2549 19.3991 17.2549 19.004C17.2549 18.6237 17.5315 18.3668 17.9118 18.3668C18.0056 18.3668 18.0995 18.3816 18.1884 18.4212L18.1736 18.594Z" fill="#B2B2B2"/>
<path d="M18.8502 18.3915H19.028V18.9348L19.5565 18.3915H19.7935L19.2107 18.9792L19.838 19.6312H19.5762L19.023 19.0237V19.6312H18.8452V18.3915H18.8502Z" fill="#B2B2B2"/>
<path d="M20.4751 18.3915H21.1715V18.5495H20.6529V18.9101H21.1221V19.0681H20.6529V19.4781H21.1715V19.6361H20.4751V18.3915Z" fill="#B2B2B2"/>
<path d="M21.8829 18.3915H22.1892C22.4312 18.3915 22.6683 18.431 22.6683 18.7273C22.6683 18.8805 22.5546 18.9842 22.4114 19.0089V19.0138C22.4657 19.0336 22.4954 19.0632 22.53 19.1373L22.7621 19.6312H22.5596L22.367 19.2015C22.3126 19.083 22.2534 19.083 22.1595 19.083H22.0509V19.6312H21.873V18.3915H21.8829ZM22.0558 18.9249H22.2089C22.3768 18.9249 22.4756 18.8508 22.4756 18.7323C22.4756 18.6187 22.3917 18.5495 22.2287 18.5495H22.0558V18.9249Z" fill="#B2B2B2"/>
<path d="M23.4238 18.3915H24.1202V18.5495H23.6016V18.9101H24.0709V19.0681H23.6016V19.4781H24.1202V19.6361H23.4238V18.3915Z" fill="#B2B2B2"/>
<path d="M24.8413 18.3915H25.0191V19.6312H24.8413V18.3915Z" fill="#B2B2B2"/>
<path d="M27.6467 18.3915H27.8245V18.9348L28.353 18.3915H28.5901L28.0073 18.9792L28.6346 19.6312H28.3777L27.8245 19.0237V19.6312H27.6467V18.3915Z" fill="#B2B2B2"/>
<path d="M29.7954 18.3717C30.1708 18.3717 30.393 18.6434 30.393 19.0138C30.393 19.3892 30.1757 19.6559 29.7954 19.6559C29.4151 19.6559 29.1978 19.3892 29.1978 19.0138C29.1978 18.6434 29.42 18.3717 29.7954 18.3717ZM29.7954 19.4978C30.0819 19.4978 30.2053 19.2608 30.2053 19.0138C30.2053 18.7619 30.072 18.5298 29.7954 18.5298C29.5237 18.5298 29.3854 18.7619 29.3854 19.0138C29.3854 19.2608 29.5089 19.4978 29.7954 19.4978Z" fill="#B2B2B2"/>
<path d="M31.0796 18.3915H31.3216L31.8699 19.3892H31.8748V18.3915H32.0526V19.6312H31.8254L31.2623 18.6137H31.2574V19.6312H31.0796V18.3915Z" fill="#B2B2B2"/>
<path d="M32.7935 18.3915H33.159C33.5245 18.3915 33.8208 18.6187 33.8208 18.999C33.8208 19.4139 33.5689 19.6312 33.159 19.6312H32.7935V18.3915ZM32.9713 19.4732H33.159C33.4652 19.4732 33.6331 19.325 33.6331 19.0039C33.6331 18.7125 33.4355 18.5446 33.1787 18.5446H32.9713V19.4732Z" fill="#B2B2B2"/>
<path d="M34.5271 18.3915H34.7049V19.6312H34.5271V18.3915Z" fill="#B2B2B2"/>
<path d="M35.7026 18.5495H35.3174V18.3915H36.2657V18.5495H35.8804V19.6312H35.7026V18.5495Z" fill="#B2B2B2"/>
<path d="M37.4165 18.3717C37.7919 18.3717 38.0141 18.6434 38.0141 19.0138C38.0141 19.3892 37.7968 19.6559 37.4165 19.6559C37.0362 19.6559 36.8188 19.3892 36.8188 19.0138C36.8188 18.6434 37.0411 18.3717 37.4165 18.3717ZM37.4165 19.4978C37.703 19.4978 37.8264 19.2608 37.8264 19.0138C37.8264 18.7619 37.6931 18.5298 37.4165 18.5298C37.1448 18.5298 37.0065 18.7619 37.0065 19.0138C37.0065 19.2608 37.13 19.4978 37.4165 19.4978Z" fill="#B2B2B2"/>
<path d="M38.6907 18.3915H38.9969C39.2439 18.3915 39.476 18.431 39.476 18.7273C39.476 18.8805 39.3624 18.9842 39.2192 19.0089V19.0138C39.2735 19.0336 39.3031 19.0632 39.3377 19.1373L39.5698 19.6312H39.3673L39.1796 19.2015C39.1253 19.083 39.066 19.083 38.9722 19.083H38.8685V19.6312H38.6907V18.3915ZM38.8685 18.9249H39.0216C39.1895 18.9249 39.2883 18.8508 39.2883 18.7323C39.2883 18.6187 39.2043 18.5495 39.0414 18.5495H38.8685V18.9249Z" fill="#B2B2B2"/>
<path d="M40.2368 18.3915H40.9332V18.5495H40.4146V18.9101H40.8838V19.0681H40.4146V19.4781H40.9332V19.6361H40.2368V18.3915Z" fill="#B2B2B2"/>
<path d="M41.6543 18.3915H41.8321V19.6312H41.6543V18.3915Z" fill="#B2B2B2"/>
<path d="M26.3577 19.162C26.4559 19.162 26.5356 19.0824 26.5356 18.9842C26.5356 18.886 26.4559 18.8064 26.3577 18.8064C26.2595 18.8064 26.1799 18.886 26.1799 18.9842C26.1799 19.0824 26.2595 19.162 26.3577 19.162Z" fill="#B2B2B2"/>
</g>
<defs>
<filter id="filter0_d_2710_4424" x="2" y="0" width="52" height="56.8029" filterUnits="userSpaceOnUse" color-interpolation-filters="sRGB">
<feFlood flood-opacity="0" result="BackgroundImageFix"/>
<feColorMatrix in="SourceAlpha" type="matrix" values="0 0 0 0 0 0 0 0 0 0 0 0 0 0 0 0 0 0 127 0" result="hardAlpha"/>
<feOffset dy="4"/>
<feGaussianBlur stdDeviation="2"/>
<feComposite in2="hardAlpha" operator="out"/>
<feColorMatrix type="matrix" values="0 0 0 0 0 0 0 0 0 0 0 0 0 0 0 0 0 0 0.25 0"/>
<feBlend mode="normal" in2="BackgroundImageFix" result="effect1_dropShadow_2710_4424"/>
<feBlend mode="normal" in="SourceGraphic" in2="effect1_dropShadow_2710_4424" result="shape"/>
</filter>
<clipPath id="clip0_2710_4424">
<rect width="28" height="28" fill="white" transform="translate(14 8.10999)"/>
</clipPath>
</defs>
</svg>
