<svg width="56" height="57" viewBox="0 0 56 57" fill="none" xmlns="http://www.w3.org/2000/svg">
<g filter="url(#filter0_d_2710_5337)">
<path fill-rule="evenodd" clip-rule="evenodd" d="M33.9972 43.1726C43.2327 40.5618 50 32.0712 50 22C50 9.84974 40.1503 0 28 0C15.8497 0 6 9.84974 6 22C6 32.0712 12.7673 40.5618 22.0028 43.1726L27.6516 48.6614C27.8456 48.85 28.1544 48.85 28.3484 48.6614L33.9972 43.1726Z" fill="white"/>
</g>
<circle cx="28" cy="22" r="18" fill="#BE5CD6"/>
<path d="M35.9774 19.0406C35.8512 19.4616 35.5565 20.1352 35.2406 20.8299C35.43 21.314 35.409 21.9455 35.0512 22.6401C34.9671 22.8085 34.8618 22.9769 34.7356 23.1453C34.4199 23.5874 33.9778 24.0503 33.5147 24.5766L33.4094 24.6818C33.2832 24.8081 33.0938 24.8503 32.9464 24.745C32.7569 24.6187 32.7358 24.3872 32.8832 24.2188C32.9254 24.1766 32.9674 24.1346 32.9885 24.0925C33.5988 23.4188 34.1884 22.7875 34.4409 22.3032C34.904 21.3982 34.5883 20.8087 34.1462 20.5352C33.7884 20.3246 33.2832 20.3246 33.0097 20.7246C32.6097 21.3139 32.0625 21.9454 31.5363 22.5348C30.9259 23.2294 30.3154 23.966 29.9786 24.5344C29.5998 25.1869 29.0946 26.7234 29.0103 28.3232C28.9681 29.102 28.9471 30.0072 28.9261 30.5544C28.9261 30.8281 29.1367 31.0596 29.4314 31.0596H32.6097C32.8834 31.0596 33.0938 30.828 33.0938 30.5755V29.6705C33.0938 29.4599 33.1991 29.2495 33.3675 29.1232C34.5041 28.3445 35.5565 27.3971 36.167 26.7027C37.472 25.1872 37.9351 20.7037 37.9982 19.3776C38.0614 18.1145 36.3564 17.7987 35.9775 19.0405L35.9774 19.0406Z" fill="white"/>
<path d="M26.0213 24.5765C25.6635 23.9871 25.0741 23.2715 24.4636 22.5769C23.9374 21.9875 23.3902 21.356 22.9902 20.7667C22.7166 20.3457 22.2115 20.3457 21.8537 20.5772C21.4116 20.8298 21.0959 21.4403 21.559 22.3453C21.8115 22.8294 22.4009 23.4609 23.0114 24.1346C23.0536 24.1767 23.0955 24.2187 23.1167 24.2608C23.2641 24.4083 23.222 24.6608 23.0536 24.7871C22.9061 24.8712 22.7167 24.8502 22.5905 24.7239C22.5483 24.6818 22.5273 24.6608 22.4852 24.6187C22.0221 24.0713 21.58 23.5872 21.2644 23.1662C21.1381 22.9978 21.0328 22.8084 20.9487 22.661C20.5909 21.9664 20.5699 21.3349 20.7593 20.8508C20.4436 20.1352 20.1489 19.4827 20.0225 19.0616C19.6437 17.8197 17.9386 18.1354 18.0017 19.4615C18.0648 20.7877 18.5489 25.2711 19.8329 26.7866C20.4223 27.4812 21.4957 28.4074 22.6325 29.2071C22.8009 29.3334 22.9061 29.5228 22.9061 29.7544V30.6594C22.9061 30.9331 23.1377 31.1435 23.3902 31.1435H26.5686C26.8423 31.1435 27.0738 30.912 27.0527 30.6383C27.0317 30.0911 27.0105 29.1859 26.9685 28.4071C26.9054 26.7658 26.4213 25.2291 26.0214 24.5766L26.0213 24.5765Z" fill="white"/>
<path d="M26.9686 20.7035C26.2108 19.9247 25.0952 18.4933 25.0952 16.7674C25.0952 16.3464 25.1583 15.9675 25.2636 15.5886C24.3586 15.2518 23.4113 15.2098 22.864 15.2098C22.5903 15.2098 22.3799 15.4204 22.3799 15.6939C22.3589 16.5358 22.4852 18.3461 23.6008 19.4617C24.569 20.451 26.0425 20.6825 26.9685 20.7036L26.9686 20.7035Z" fill="white"/>
<path d="M29.0313 20.7034C29.9575 20.6613 31.4518 20.4509 32.3992 19.4826C33.5148 18.367 33.641 16.5568 33.62 15.7148C33.62 15.4411 33.4095 15.2307 33.1359 15.2307C32.5887 15.2307 31.6414 15.2729 30.7364 15.6095C30.8416 15.9883 30.9048 16.3673 30.9048 16.7882C30.9046 18.4932 29.789 19.9246 29.0312 20.7033L29.0313 20.7034Z" fill="white"/>
<path d="M28.3367 13.252C28.1473 13.0626 27.8315 13.0626 27.6421 13.252C27.0318 13.8414 25.8319 15.2095 25.8319 16.7882C25.8319 18.3669 27.0318 19.735 27.6421 20.3244C27.8315 20.5138 28.1473 20.5138 28.3367 20.3244C28.9471 19.735 30.147 18.3669 30.147 16.7882C30.147 15.1887 28.9471 13.8415 28.3367 13.252Z" fill="white"/>
<defs>
<filter id="filter0_d_2710_5337" x="2" y="0" width="52" height="56.8029" filterUnits="userSpaceOnUse" color-interpolation-filters="sRGB">
<feFlood flood-opacity="0" result="BackgroundImageFix"/>
<feColorMatrix in="SourceAlpha" type="matrix" values="0 0 0 0 0 0 0 0 0 0 0 0 0 0 0 0 0 0 127 0" result="hardAlpha"/>
<feOffset dy="4"/>
<feGaussianBlur stdDeviation="2"/>
<feComposite in2="hardAlpha" operator="out"/>
<feColorMatrix type="matrix" values="0 0 0 0 0 0 0 0 0 0 0 0 0 0 0 0 0 0 0.25 0"/>
<feBlend mode="normal" in2="BackgroundImageFix" result="effect1_dropShadow_2710_5337"/>
<feBlend mode="normal" in="SourceGraphic" in2="effect1_dropShadow_2710_5337" result="shape"/>
</filter>
</defs>
</svg>
