<?xml version="1.0" encoding="utf-8"?>
<!-- Generator: Adobe Illustrator 26.0.1, SVG Export Plug-In . SVG Version: 6.00 Build 0)  -->
<svg version="1.1" id="Ebene_1" xmlns="http://www.w3.org/2000/svg" xmlns:xlink="http://www.w3.org/1999/xlink" x="0px" y="0px"
	 viewBox="0 0 1920 1080" style="enable-background:new 0 0 1920 1080;" xml:space="preserve">
<style type="text/css">
	.st0{fill:url(#SVGID_1_);}
	.st1{opacity:0.5;fill:url(#SVGID_00000062151116763859423190000003996042893639361183_);}
	.st2{opacity:0.13;fill:url(#SVGID_00000169549728779749042680000008700286129018702008_);}
	.st3{opacity:0.13;fill:url(#SVGID_00000145764115737223614390000011726159785061318325_);}
	.st4{opacity:0.12;fill:url(#SVGID_00000014631291990556107240000007688246661276752805_);}
	.st5{opacity:0.93;fill:url(#SVGID_00000063627638813749493020000016836180548714509467_);}
	.st6{opacity:0.7;fill:url(#SVGID_00000013187188545100895370000007032492228071579056_);}
	.st7{opacity:0.25;fill:url(#SVGID_00000020381936865618395200000007078715408629491631_);}
	.st8{opacity:0.93;fill:url(#SVGID_00000030452598086183002510000004256014391756194434_);}
</style>
<g>
	<g>
		<linearGradient id="SVGID_1_" gradientUnits="userSpaceOnUse" x1="1710.1473" y1="-209.8526" x2="209.8526" y2="1290.4421">
			<stop  offset="0" style="stop-color:#0D1620"/>
			<stop  offset="0.1609" style="stop-color:#0F192C"/>
			<stop  offset="0.4488" style="stop-color:#13214A"/>
			<stop  offset="0.8281" style="stop-color:#1A2E7C"/>
			<stop  offset="0.8898" style="stop-color:#1B3085"/>
		</linearGradient>
		<rect class="st0" width="1920" height="1080.6"/>
		
			<linearGradient id="SVGID_00000013175821185649790900000008997003323136088767_" gradientUnits="userSpaceOnUse" x1="2004.7633" y1="-126.9278" x2="-63.4224" y2="1941.2579">
			<stop  offset="1.353259e-06" style="stop-color:#0D1620"/>
			<stop  offset="1" style="stop-color:#1B3085"/>
		</linearGradient>
		<path style="opacity:0.5;fill:url(#SVGID_00000013175821185649790900000008997003323136088767_);" d="M1920,1080.6V325.5
			C1044.8,334.4,302.7,509.9,0,755.1v325.5H1920z"/>
		
			<linearGradient id="SVGID_00000059289814153750875160000011299350163670716827_" gradientUnits="userSpaceOnUse" x1="1819.0315" y1="-92.5237" x2="-1334.8511" y2="3061.3589">
			<stop  offset="9.057242e-07" style="stop-color:#1B3085"/>
			<stop  offset="0.6771" style="stop-color:#7C23D6"/>
			<stop  offset="1" style="stop-color:#A51EF9"/>
		</linearGradient>
		<path style="opacity:0.13;fill:url(#SVGID_00000059289814153750875160000011299350163670716827_);" d="M653.8,473.7
			C487.2,458.9,311.5,451,129.9,451c-43.7,0-87,0.5-129.9,1.4v302.7v325.5h1920V827.7C1692.8,656.3,1226.9,524.4,653.8,473.7z"/>
		
			<linearGradient id="SVGID_00000070802469266643374360000010796235304844039589_" gradientUnits="userSpaceOnUse" x1="1836.2231" y1="-3.0535" x2="-1860.6338" y2="3693.8035">
			<stop  offset="9.057242e-07" style="stop-color:#1B3085"/>
			<stop  offset="0.6771" style="stop-color:#7C23D6"/>
			<stop  offset="1" style="stop-color:#A51EF9"/>
		</linearGradient>
		<path style="opacity:0.13;fill:url(#SVGID_00000070802469266643374360000010796235304844039589_);" d="M653.8,687
			c-166.7-14.8-342.3-22.7-523.9-22.7c-43.7,0-87,0.5-129.9,1.4v89.3v213.3v112.2h1920V1041C1692.8,869.6,1226.9,737.7,653.8,687z"
			/>
		
			<linearGradient id="SVGID_00000042006397681221882060000017014553690234454674_" gradientUnits="userSpaceOnUse" x1="1486.3411" y1="20.7955" x2="942.4363" y2="564.7002">
			<stop  offset="4.475343e-07" style="stop-color:#0D1620"/>
			<stop  offset="0.5681" style="stop-color:#15255C"/>
			<stop  offset="1" style="stop-color:#1B3085"/>
		</linearGradient>
		<path style="opacity:0.12;fill:url(#SVGID_00000042006397681221882060000017014553690234454674_);" d="M0,755.1v13.7
			c302.7-245.2,1044.8-420.7,1920-429.6v-13.7C1044.8,334.4,302.7,509.9,0,755.1z"/>
	</g>
	
		<radialGradient id="SVGID_00000102538197840736133640000004616582065284868769_" cx="1083.2751" cy="287.5751" r="104.0027" gradientTransform="matrix(11.5146 0 0 3.6435 -10563.0674 -668.8381)" gradientUnits="userSpaceOnUse">
		<stop  offset="0" style="stop-color:#0D1620"/>
		<stop  offset="1" style="stop-color:#0D1620;stop-opacity:0"/>
	</radialGradient>
	<path style="opacity:0.93;fill:url(#SVGID_00000102538197840736133640000004616582065284868769_);" d="M712.8,378.9
		c0,209.3,536.2,378.9,1197.5,378.9c3.2,0,6.4,0,9.6,0V0c-3.2,0-6.4,0-9.6,0C1249,0,712.8,169.7,712.8,378.9z"/>
	
		<radialGradient id="SVGID_00000183961477608017930030000015261160872841098892_" cx="917.3643" cy="353.2325" r="126.9239" gradientTransform="matrix(11.5146 0 0 3.6435 -10563.0674 -668.8381)" gradientUnits="userSpaceOnUse">
		<stop  offset="0" style="stop-color:#1B3085"/>
		<stop  offset="5.889297e-03" style="stop-color:#1C3286;stop-opacity:0.9941"/>
		<stop  offset="0.1967" style="stop-color:#4268AA;stop-opacity:0.8033"/>
		<stop  offset="0.3829" style="stop-color:#6295C8;stop-opacity:0.6171"/>
		<stop  offset="0.5602" style="stop-color:#7AB8DF;stop-opacity:0.4398"/>
		<stop  offset="0.7266" style="stop-color:#8CD1EF;stop-opacity:0.2734"/>
		<stop  offset="0.8778" style="stop-color:#96E1FA;stop-opacity:0.1222"/>
		<stop  offset="1" style="stop-color:#9AE6FD;stop-opacity:0"/>
	</radialGradient>
	<path style="opacity:0.7;fill:url(#SVGID_00000183961477608017930030000015261160872841098892_);" d="M1461.5,618.1
		c0-255.4-654.3-462.4-1461.5-462.4v924.9C807.2,1080.6,1461.5,873.5,1461.5,618.1z"/>
	
		<radialGradient id="SVGID_00000182522445295345177700000007213700879278811838_" cx="1056.2939" cy="422.607" r="153.9413" gradientTransform="matrix(11.5146 0 0 3.6435 -10563.0674 -668.8381)" gradientUnits="userSpaceOnUse">
		<stop  offset="9.057242e-07" style="stop-color:#1B3085"/>
		<stop  offset="1" style="stop-color:#1B3085;stop-opacity:0"/>
	</radialGradient>
	<path style="opacity:0.25;fill:url(#SVGID_00000182522445295345177700000007213700879278811838_);" d="M1920,723.9
		c-36.2-1.5-73.2-2.4-110.8-2.4c-453.9,0-821.9,116.4-821.9,260.1c0,35,21.9,68.4,61.6,99H1920V723.9z"/>
	
		<radialGradient id="SVGID_00000098925874046863774270000009079272766320128421_" cx="1051.7889" cy="483.9957" r="158.8232" gradientTransform="matrix(11.5146 0 0 3.6435 -10563.0674 -668.8381)" gradientUnits="userSpaceOnUse">
		<stop  offset="4.475343e-07" style="stop-color:#0D1620"/>
		<stop  offset="1" style="stop-color:#0D1620;stop-opacity:0"/>
	</radialGradient>
	<path style="opacity:0.93;fill:url(#SVGID_00000098925874046863774270000009079272766320128421_);" d="M1920,553.4
		c-126.5-8.6-257.8-13.1-392.4-13.1C896,540.3,337.7,639.6,0,791.6v289h1920V553.4z"/>
</g>
</svg>
