<svg width="60" height="61" viewBox="0 0 60 61" fill="none" xmlns="http://www.w3.org/2000/svg">
<g filter="url(#filter0_d_921_5145)">
<path fill-rule="evenodd" clip-rule="evenodd" d="M36.4255 46.2564C46.3206 43.4591 53.5713 34.362 53.5713 23.5714C53.5713 10.5533 43.018 0 29.9999 0C16.9818 0 6.42847 10.5533 6.42847 23.5714C6.42847 34.362 13.6792 43.4591 23.5743 46.2564L29.6515 52.1614C29.8455 52.35 30.1543 52.35 30.3483 52.1614L36.4255 46.2564Z" fill="white"/>
</g>
<circle cx="29.7144" cy="23.4036" r="18" fill="white"/>
<path fill-rule="evenodd" clip-rule="evenodd" d="M27.4015 22.1994L29.7369 8.21041C21.3222 8.36519 14.527 15.2339 14.527 23.6893C14.527 26.3207 15.2486 28.8554 16.4444 31.1772L27.4015 22.1994ZM29.9807 26.6883L16.725 31.6609C19.4802 36.2852 24.625 39.1488 29.9981 39.1488C35.3983 39.1488 40.4754 36.2852 43.2635 31.6609L29.9807 26.6883ZM32.5792 22.1994L43.5518 31.1772C44.7824 28.8747 45.4886 26.3207 45.4886 23.6893C45.4886 15.1565 38.7224 8.46193 30.2806 8.19105L32.5792 22.1994ZM47.139 23.6893C47.139 33.112 39.417 40.8321 29.9981 40.8321C20.587 40.8321 12.8572 33.112 12.8572 23.6893C12.8572 14.2665 20.5792 6.54642 29.9981 6.54642C39.4228 6.54642 47.139 14.2665 47.139 23.6893Z" fill="white"/>
<path d="M47.139 23.6893C47.139 33.112 39.417 40.8321 29.9981 40.8321C20.587 40.8321 12.8572 33.112 12.8572 23.6893C12.8572 14.2665 20.5792 6.54642 29.9981 6.54642C39.4228 6.54642 47.139 14.2665 47.139 23.6893ZM26.2 25.6048L26.1787 25.6435L26.2329 25.6241L29.5163 23.6893L28.934 23.3603L26.2 25.6048ZM41.1893 30.0163H41.2513L41.2164 29.9582L31.2558 23.2636L30.4992 23.6893L41.1893 30.0163ZM29.8956 11.6931L29.8685 11.6544L29.8394 11.6931L29.1468 22.896L29.764 23.2636L29.8956 11.6931ZM40.2819 11.5964L40.3032 11.6544C41.1139 12.409 41.882 13.2217 42.5767 14.0924C44.7398 16.8012 45.8678 20.2259 45.8678 23.6893C45.8678 26.4174 45.1384 29.0488 43.8343 31.4287L44.0123 31.7576L43.6408 31.777C40.7908 36.5367 35.555 39.5358 29.9981 39.5358C24.4334 39.5358 19.2268 36.5561 16.3747 31.777L16.0246 31.7576L16.1697 31.4287C15.3377 29.9002 14.7669 28.2749 14.4302 26.5722L14.3974 26.5335L14.376 26.5916C14.5966 28.391 15.1655 30.1517 16.0246 31.7576C18.8282 37.0204 24.0561 40.1162 30.0058 40.1162C39.0377 40.1162 46.4038 32.7057 46.4038 23.6893C46.4038 19.065 44.02 14.4019 40.338 11.5964H40.2819ZM29.7369 8.21041C21.3222 8.36519 14.527 15.2339 14.527 23.6893C14.527 26.3207 15.2486 28.8554 16.4444 31.1772L27.1809 22.3736L28.0613 22.8766L16.3341 31.4867L16.2857 31.6028H16.4173L29.7505 24.0956L29.7234 26.785L16.725 31.6609C19.4802 36.2852 24.625 39.1488 29.9981 39.1488C35.3983 39.1488 40.4754 36.2852 43.2635 31.6609L30.2729 26.785L30.2381 24.0956L43.6079 31.6028H43.724L43.6698 31.5061L31.9349 22.8766L32.8076 22.3736L43.5518 31.1772C44.7824 28.8747 45.4886 26.3207 45.4886 23.6893C45.4886 15.1565 38.7224 8.46193 30.2806 8.19105L32.5328 21.9092L30.2323 23.2636L30.0658 7.93952L29.9981 7.86213L29.9362 7.93952L28.3148 22.3929L27.4499 21.9092L29.7369 8.21041ZM19.0546 36.2852C15.7227 32.9379 13.8053 28.449 13.8053 23.6893C13.8053 14.7696 21.0803 7.4945 29.9981 7.4945C37.8091 7.4945 44.4651 13.1443 46.4173 20.5548L46.458 20.5742L46.4792 20.5354C44.9197 12.6993 38.0433 6.9334 29.9981 6.9334C20.7862 6.9334 13.2364 14.4794 13.2364 23.6893C13.2364 28.5458 15.3938 33.1314 19.0197 36.3433H19.0681L19.0546 36.2852Z" fill="#231F20"/>
<defs>
<filter id="filter0_d_921_5145" x="2.42847" y="0" width="55.1428" height="60.3028" filterUnits="userSpaceOnUse" color-interpolation-filters="sRGB">
<feFlood flood-opacity="0" result="BackgroundImageFix"/>
<feColorMatrix in="SourceAlpha" type="matrix" values="0 0 0 0 0 0 0 0 0 0 0 0 0 0 0 0 0 0 127 0" result="hardAlpha"/>
<feOffset dy="4"/>
<feGaussianBlur stdDeviation="2"/>
<feComposite in2="hardAlpha" operator="out"/>
<feColorMatrix type="matrix" values="0 0 0 0 0 0 0 0 0 0 0 0 0 0 0 0 0 0 0.25 0"/>
<feBlend mode="normal" in2="BackgroundImageFix" result="effect1_dropShadow_921_5145"/>
<feBlend mode="normal" in="SourceGraphic" in2="effect1_dropShadow_921_5145" result="shape"/>
</filter>
</defs>
</svg>
