<svg width="60" height="61" viewBox="0 0 60 61" fill="none" xmlns="http://www.w3.org/2000/svg">
<g filter="url(#filter0_d_921_3545)">
<path fill-rule="evenodd" clip-rule="evenodd" d="M36.4255 46.2564C46.3206 43.4591 53.5713 34.362 53.5713 23.5714C53.5713 10.5533 43.018 0 29.9999 0C16.9818 0 6.42847 10.5533 6.42847 23.5714C6.42847 34.362 13.6792 43.4591 23.5743 46.2564L29.6515 52.1614C29.8455 52.35 30.1543 52.35 30.3483 52.1614L36.4255 46.2564Z" fill="white"/>
</g>
<circle cx="30.0001" cy="23.5714" r="19.2857" fill="#D6D65C"/>
<path d="M35.571 25.2046C34.9934 25.2046 34.4417 25.3164 33.9317 25.5118L32.4156 23.1619C32.577 22.9436 32.7336 22.7215 32.8822 22.4909C34.7739 19.5581 35.3195 16.1457 34.6805 12.975L30.2641 19.824L25.8476 12.975C25.2082 16.1458 25.7543 19.5579 27.6455 22.4909C27.7946 22.7215 27.9515 22.9436 28.1121 23.1619L26.5964 25.5118C26.086 25.3164 25.5351 25.2046 24.9567 25.2046C22.4205 25.2046 20.3572 27.2677 20.3572 29.8041C20.3572 32.3401 22.4203 34.4036 24.9567 34.4036C27.4924 34.4036 29.5562 32.3404 29.5562 29.8041C29.5562 28.6241 29.1058 27.551 28.3731 26.7357C29.0366 26.3641 29.6689 25.9298 30.2639 25.4381C30.8595 25.93 31.4912 26.3641 32.1551 26.7357C31.4224 27.551 30.972 28.6242 30.972 29.8041C30.972 32.3401 33.0356 34.4036 35.5711 34.4036C38.1076 34.4036 40.171 32.3404 40.171 29.8041C40.171 27.268 38.1078 25.2046 35.5715 25.2046H35.571ZM27.4902 29.8041C27.4902 31.201 26.3535 32.3378 24.9568 32.3378C23.5594 32.3378 22.4231 31.201 22.4231 29.8041C22.4231 28.4071 23.5595 27.2703 24.9568 27.2703C25.1197 27.2703 25.2788 27.2872 25.4329 27.317C25.7488 27.3774 26.0429 27.4973 26.3055 27.6634C27.0162 28.1125 27.4902 28.9033 27.4902 29.8041V29.8041ZM35.571 32.338C34.1744 32.338 33.0381 31.2012 33.0381 29.8042C33.0381 28.9035 33.5122 28.1126 34.2224 27.6635C34.4854 27.4974 34.7795 27.3776 35.095 27.317C35.2496 27.2874 35.4087 27.2704 35.571 27.2704C36.9685 27.2704 38.1053 28.4071 38.1053 29.8041C38.1053 31.2011 36.9683 32.338 35.571 32.338V32.338Z" fill="white"/>
<defs>
<filter id="filter0_d_921_3545" x="2.42847" y="0" width="55.1428" height="60.3028" filterUnits="userSpaceOnUse" color-interpolation-filters="sRGB">
<feFlood flood-opacity="0" result="BackgroundImageFix"/>
<feColorMatrix in="SourceAlpha" type="matrix" values="0 0 0 0 0 0 0 0 0 0 0 0 0 0 0 0 0 0 127 0" result="hardAlpha"/>
<feOffset dy="4"/>
<feGaussianBlur stdDeviation="2"/>
<feComposite in2="hardAlpha" operator="out"/>
<feColorMatrix type="matrix" values="0 0 0 0 0 0 0 0 0 0 0 0 0 0 0 0 0 0 0.25 0"/>
<feBlend mode="normal" in2="BackgroundImageFix" result="effect1_dropShadow_921_3545"/>
<feBlend mode="normal" in="SourceGraphic" in2="effect1_dropShadow_921_3545" result="shape"/>
</filter>
</defs>
</svg>
